<svg width="205" height="205" viewBox="0 0 205 205" fill="none" xmlns="http://www.w3.org/2000/svg">
<path d="M199.132 135.109C200.859 121.868 219.144 82.8269 180.859 68.722C167.771 63.9002 162.825 61.0799 151.646 52.7347C148.481 50.3719 145.061 48.3654 141.398 46.8868C113.629 35.6768 61.9135 18.5978 25.5545 49.1479C-23.0932 90.0235 11.3957 141.388 18.3581 148.351C31.3116 161.304 56.643 177.712 126.88 184.62C197.117 191.529 197.405 148.351 199.132 135.109Z" fill="#FEF3C8" fill-opacity="0.8"/>
<path d="M88.7288 72.8919C90.0392 57.4089 104.27 37.4365 112.51 28.0411L122.52 37.6344C113.213 47.3451 98.475 67.3283 113.978 69.575C133.357 72.3833 132.745 98.7403 111.032 116.91C86.6904 142.308 55.9582 114.86 51.5328 99.4404C48.0323 87.2435 33.9638 90.8094 26.3305 92.7443L26.0724 92.8097L23.8131 82.9055C30.9389 78.461 44.9102 77.0423 55.6981 81.9356C71.1483 92.7306 84.7874 94.0509 88.7288 72.8919Z" fill="#F68053"/>
<path d="M95.8188 89.7192C93.2491 90.008 87.7264 85.4028 85.4232 82.6222C84.9999 83.3629 85.2987 83.6493 84.01 84.9939C87.3565 88.2012 92.2746 90.5262 95.1278 91.6365C97.182 91.8856 97.8793 90.2609 95.8188 89.7192Z" fill="#CB653E"/>
<path d="M91.1683 98.1603C87.0598 97.6621 81.6089 91.387 79.3971 88.3117C78.3886 89.0649 77.8034 89.0773 76.0541 89.4072C74.6945 91.5435 84.1755 97.3818 89.4626 100.538C92.5626 101.79 95.2769 98.6584 91.1683 98.1603Z" fill="#CB653E"/>
<path d="M102.634 121.187C115.025 114.719 122.842 96.4144 125.201 88.0708C124.315 85.4064 122.296 82.1904 121.304 90.6416C120.313 99.0927 106.851 112.999 100.244 118.896C95.8777 122.355 90.2433 127.656 102.634 121.187Z" fill="#CB653E"/>
<path d="M24.94 87.7118L26.0727 92.8102C36.1698 92.7422 40.6334 89.2812 48.3399 93.8009C44.7096 88.258 32.5345 89.258 24.94 87.7118Z" fill="#CB653E"/>
<path d="M89.5023 120.608C81.0879 121.422 64.1687 112.917 59.3055 106.018C56.9305 103.078 56.4554 91.0216 57.2697 88.0358C58.2876 84.3036 76.2699 97.1966 82.3771 96.8574C88.4843 96.5181 91.5379 73.1071 95.6094 66.3213C99.6809 59.5355 107.145 71.7499 114.27 75.8214C121.395 79.8929 124.11 94.4823 118.681 101.607C114.338 107.307 108.163 109.75 104.092 111.108C101.038 116.536 97.9166 119.793 89.5023 120.608Z" fill="#733B27"/>
<path d="M85.7698 113.143C77.3554 113.957 67.5508 110.145 62.6877 103.246C60.3127 100.305 64.7232 97.8172 68.7947 99.5137C74.9019 104.264 77.9661 98.9844 84.0733 98.6451C90.1806 98.3058 95.1045 104.603 99.6807 99.5136C104.77 93.4063 108.152 96.4601 112.059 98.6451C114.949 98.893 116.811 90.6007 119.699 97.1965C119.699 103.643 105.788 107.036 101.716 108.393C98.6628 113.822 94.1842 112.329 85.7698 113.143Z" fill="#FBCB4F"/>
<path d="M88.9974 119.74C80.5831 120.554 64.5079 112.239 59.6447 105.34C57.2697 102.4 61.6803 99.9118 65.7517 101.608C71.859 106.358 72.5377 99.9118 78.6449 99.5725C84.7521 99.2333 88.9974 106.019 93.5736 100.93C98.663 94.8225 105.109 98.5547 109.016 100.74C113.252 103.644 115.288 94.1439 118.176 100.74C113.833 106.44 107.658 108.883 103.587 110.24C100.533 115.668 97.4118 118.926 88.9974 119.74Z" fill="#FFDD83"/>
<path d="M87.1201 132.091C88.9859 133.833 94.8423 141.316 97.5373 144.841C96.5422 147.95 75.4591 138.051 65.042 132.713L68.1516 130.381C70.4838 130.951 75.397 132.091 76.392 132.091C77.3871 132.091 81.8857 136.134 84.0106 138.155L87.7421 140.332C86.0836 138.103 82.7356 133.459 82.6112 132.713C82.4557 131.78 84.7879 129.914 87.1201 132.091Z" fill="#CFAD82"/>
<path d="M80.1237 146.315C84.4772 153.157 100.181 165.439 108.421 170.249L119.771 158.287C118.838 157.354 119.46 157.354 117.284 155.167C117.905 148.337 114.174 143.206 112.308 141.185C112.775 134.343 116.904 134.42 117.284 133.566C118.527 130.767 107.333 128.124 104.379 138.531C103.01 148.108 92.8731 144.761 88.0532 142.117C83.2333 139.63 73.2826 135.587 66.1305 132.011C59.9113 128.155 57.5791 132.052 57.5791 134.333C63.2282 135.628 72.3497 141.34 80.1237 146.315Z" fill="#E3C7A1"/>
<path d="M29.5928 128.204V127.115L147.136 126.96V128.359C143.031 127.986 137.807 130.381 136.097 131.78C130.033 131.78 42.8086 131.624 40.0099 131.624C38.8905 130.132 32.5987 128.722 29.5928 128.204Z" fill="#575757"/>
<rect x="106.5" y="171.834" width="19.5531" height="6.53017" transform="rotate(-46.0997 106.5 171.834)" fill="#F0F0F0"/>
<rect x="109.474" y="178.163" width="22.0524" height="25.3622" transform="rotate(-46.0997 109.474 178.163)" fill="#F68053"/>
<circle cx="115.751" cy="178.601" r="1.5548" transform="rotate(-46.0997 115.751 178.601)" fill="white"/>
<circle cx="120.008" cy="182.698" r="1.5548" transform="rotate(-46.0997 120.008 182.698)" fill="white"/>
</svg>
