<svg width="206" height="148" viewBox="0 0 206 148" fill="none" xmlns="http://www.w3.org/2000/svg">
<path d="M0.243486 81.6449C1.86088 58.2554 11.5912 39.0503 33.3409 22.7111C43.7429 14.8966 63.5812 29.2234 80.981 22.7114C102.731 14.5713 134.036 0.665244 154.11 15.5481C193.197 44.5266 212.067 78.0634 202.61 106.065C194.717 129.438 169.513 114.531 144.611 130.811C119.709 147.091 93.2313 154.905 74.0033 140.253C54.7753 125.601 49.483 145.776 20.7323 123.647C4.65647 111.275 -1.3326 104.437 0.243486 81.6449Z" fill="#FEF3C8" fill-opacity="0.8"/>
<path d="M175.069 9.46387H125.654C125.654 22.695 125.654 47.8072 129.705 70.2191C132.945 88.1486 133.035 109.552 132.675 118.013H168.318C167.868 110.813 168.048 91.1729 172.368 70.2191C176.689 49.2653 175.069 21.6149 175.069 9.46387Z" fill="#D6D9D9"/>
<path d="M171.679 21.8525H129.45C129.45 32.539 130.715 52.8214 133.987 70.9229C136.604 85.4041 136.677 102.691 136.386 109.525H165.174C164.81 103.709 164.956 87.8467 168.445 70.9229C171.935 53.9991 171.679 31.6666 171.679 21.8525Z" fill="#F0C940"/>
<path d="M171.837 25.4981H129.45V4.3048C129.45 -2.39712 135.278 0.242745 136.868 2.18547C137.309 3.59835 138.669 6.00026 140.577 4.3048C142.961 2.18547 148.487 1.45846 150.871 1.45846C153.255 1.45846 155.412 6.42413 163.36 2.18547C169.717 -1.20546 171.66 3.59835 171.837 6.42413V25.4981Z" fill="#F0EDE5"/>
<path d="M175.069 9.46387H151.593L151.593 70.2191C151.593 90.6255 152.225 109.605 152.225 117.671L168.318 118.013C167.868 110.813 168.048 91.1729 172.369 70.2191C176.689 49.2653 175.069 21.6149 175.069 9.46387Z" fill="#D6D9D9" fill-opacity="0.3"/>
<path d="M32.9904 67.4546C29.1316 60.0657 32.9904 59.5095 32.9904 52.6835L38.2031 46.7265L69.4774 29.6001L93.3055 46.7265L98.5178 51.1942L108.801 57.2876L117.133 52.6835L125.324 62.3636L129.047 65.3421V84.3945H126.069V81.7239H122.346L123.835 86.1917L125.324 89.9148L129.047 93.6379V101.829V110.764L114.155 118.955C89.8304 104.807 38.2031 70.9 32.9904 67.4546Z" fill="#F68053"/>
<path d="M107.596 109.292C107.596 114.749 105.279 108.088 101.336 108.088C97.3944 108.088 97.0028 108.57 94.8359 107.125C94.8359 102.227 98.0317 99.9023 101.974 99.9023C105.916 99.9023 107.596 104.394 107.596 109.292Z" fill="#C16B4B"/>
<path d="M51.7398 73.6592C51.7398 79.1165 49.4222 72.4554 45.48 72.4554C41.5379 72.4554 41.1463 72.9369 38.9795 71.4924C38.9795 66.5947 42.1752 64.2695 46.1174 64.2695C50.0595 64.2695 51.7398 68.7615 51.7398 73.6592Z" fill="#C16B4B"/>
<path d="M52.1196 76.62C52.1196 82.577 49.8638 84.0663 46.1626 84.0663C42.4614 84.0663 39.4609 78.9877 39.4609 73.6415C39.4609 68.2953 42.4614 66.1953 46.1626 66.1953C49.8638 66.1953 52.1196 71.2738 52.1196 76.62Z" fill="#3F3325"/>
<path d="M108.711 111.547C108.711 117.504 106.456 118.993 102.754 118.993C99.0532 118.993 96.0527 113.914 96.0527 108.568C96.0527 103.222 99.0532 101.122 102.754 101.122C106.456 101.122 108.711 106.201 108.711 111.547Z" fill="#3F3325"/>
<path d="M50.9616 76.3075C50.9616 81.1227 49.1596 82.3265 46.203 82.3265C43.2464 82.3265 40.8496 78.2214 40.8496 73.8999C40.8496 69.5784 43.2464 67.8809 46.203 67.8809C49.1596 67.8809 50.9616 71.986 50.9616 76.3075Z" fill="#FFF6E1"/>
<path d="M107.356 111.218C107.356 116.033 105.554 117.237 102.598 117.237C99.6409 117.237 97.2441 113.132 97.2441 108.81C97.2441 104.489 99.6409 102.791 102.598 102.791C105.554 102.791 107.356 106.897 107.356 111.218Z" fill="#FFF6E1"/>
<path d="M124.932 62.3433L84.2432 83.771L110.486 99.6613L130.71 89.5492L132.155 89.79L130.951 77.2704L129.025 65.4732L124.932 62.3433Z" fill="#E3754B"/>
<path d="M62.0928 70.7701L98.207 51.75L116.023 62.1027L84.4836 84.012L62.0928 70.7701Z" fill="#CB653E"/>
<path d="M76.7793 73.4185L96.281 63.3064L99.4109 63.7879L100.615 62.8249L101.096 60.658L116.986 52.4722L125.172 62.1026L84.2429 83.7712L76.7793 73.4185Z" fill="#FFFFEB"/>
<path d="M117.95 62.1026L116.987 55.3613V52.4722L125.173 62.1026L108.319 71.0108L114.098 65.9548L117.95 62.1026Z" fill="#F0F0E8"/>
<path d="M62.0928 62.5841L92.9102 46.9346L98.207 51.7498L62.0928 71.0107V62.5841Z" fill="#96A19B"/>
<path d="M38.7393 47.1756L69.3159 30.0815L92.9105 46.9348L62.0931 62.5843L38.7393 47.1756Z" fill="#686564"/>
<path d="M33.4424 53.1948L38.7391 47.1758L62.093 62.5845V71.0111L33.4424 53.1948Z" fill="#494542"/>
<path d="M132.877 109.051L114.339 118.682V107.607C114.339 105.681 112.091 101.588 110.486 99.6615C113.777 97.8959 123.969 91.2349 125.895 90.7534C128.543 91.9572 130.71 90.9941 132.636 91.7164C132.636 94.6055 132.877 107.205 132.877 109.051Z" fill="#C16B4B"/>
<path d="M114.098 87.142L111.931 90.9942L114.82 87.6235L118.913 86.4197L118.19 81.3637L120.357 78.7153L117.227 80.6414V86.4197L114.098 87.142Z" fill="#A6583B"/>
<path d="M126.858 79.1969H124.45L127.821 80.16L128.302 77.5116L129.025 76.7893L130.228 76.067L129.025 75.3447L127.339 77.0301L126.858 79.1969Z" fill="#A6583B"/>
<path d="M105.912 84.4934L100.615 85.4565L107.357 84.975L109.042 78.9559L113.857 75.3445L118.913 75.1038L124.21 71.4923L128.062 70.5293H124.21L118.913 73.9L112.653 74.863L107.597 78.2337L105.912 84.4934Z" fill="#A6583B"/>
<path d="M124.932 89.7899L122.283 81.604L126.376 82.3263V85.6969L129.025 84.4931V90.2713L130.71 89.5491L132.154 89.7899L132.636 91.7159V98.8523L131.524 98.573L132.083 104.716L130.128 100.807L129.57 103.041L127.894 96.3391L128.543 92.679L124.932 89.7899Z" fill="#733B27"/>
<path d="M99.4111 63.7881L96.2812 63.3066L97.7258 64.7511H99.8927L100.615 66.1957L103.263 68.8441L103.986 70.7702L105.912 72.4555L104.467 69.8071V67.881L101.096 65.2327L101.337 63.7881L102.3 62.1028L101.096 60.6582L100.615 62.8251L99.4111 63.7881Z" fill="#DDDDB7"/>
<path d="M99.4109 70.5291V68.603L100.374 70.7699L101.096 71.2514L100.855 71.7329V72.4552L99.6517 71.2514L97.7256 70.5291H99.4109Z" fill="#DDDDB7"/>
</svg>
