<svg width="205" height="185" viewBox="0 0 205 185" fill="none" xmlns="http://www.w3.org/2000/svg">
<path d="M0.242711 109.964C1.85496 86.6333 11.5543 67.4768 33.2347 51.1788C43.6036 43.3841 63.3788 57.6747 80.7232 51.1791C102.404 43.0596 133.61 29.1887 153.62 44.0339C192.582 72.9392 211.391 106.391 201.965 134.322C194.097 157.636 168.973 142.766 144.151 159.005C119.328 175.244 92.9345 183.039 73.7677 168.424C54.6009 153.809 49.3255 173.932 20.6663 151.86C4.64165 139.519 -1.32835 132.698 0.242711 109.964Z" fill="#FEF3C8" fill-opacity="0.8"/>
<path d="M52.29 116.674C47.6827 119.444 29.6216 91.9367 36.2563 88.6137L100.392 48.7378C104.631 45.9687 112.002 40.2457 121.586 42.0918C129.511 43.6184 149.169 31.6921 160.472 24L166.016 33.5276C153.484 41.8371 134.302 54.4057 134.302 56.4915C134.302 75.8756 77.3545 98.7673 52.29 116.674Z" fill="#96C1AB"/>
<path d="M40.4717 86.1899C42.7911 92.0074 49.1266 95.4325 54.1403 100.925M60.1371 111.793C58.995 107.194 56.7462 103.78 54.1403 100.925M54.1403 100.925C54.4077 96.4434 55.7959 88.3266 59.2095 91.7157C63.4766 95.9522 47.5216 99.4519 50.1189 102.031C52.1968 104.094 53.6656 102.153 54.1403 100.925ZM58.2819 112.898C66.5686 141.632 80.9426 173.498 83.9109 173.498M143.808 35.1683C144.495 36.123 145.374 37.4065 146.22 38.7471M149.003 45.4831C149.712 44.779 148.041 41.6312 146.22 38.7471M146.22 38.7471C146.344 35.1597 147.482 28.8689 151.044 32.4054C155.496 36.826 143.437 36.6159 143.066 38.7471C142.695 40.8783 145.849 41.9575 146.22 38.7471ZM145.292 48.4303C134.346 107.372 122.092 170.035 121.943 170.182" stroke="black" stroke-width="1.12288"/>
<path d="M93.9508 183.959C92.7708 183.369 93.582 180.149 94.1351 178.612H96.9006C96.9006 181.009 95.1307 184.549 93.9508 183.959Z" fill="#FBC41A"/>
<path d="M111.834 177.875C110.507 177.875 109.683 175.662 109.437 174.556L112.387 173.819C112.756 175.171 113.161 177.875 111.834 177.875Z" fill="#FBC41A"/>
<path d="M101.301 158.778C97.6137 158.778 95.8315 154.844 95.4014 152.878L105.541 153.615C105.173 155.336 103.808 158.778 101.301 158.778Z" fill="#E1CEB4"/>
<path d="M90.792 137.945C89.4646 139.272 92.0826 143.783 93.5575 145.872H109.413C110.298 144.987 109.904 143.23 109.044 143.107C110.334 139.481 110.998 132.229 103.329 132.229C93.7418 132.229 92.4513 136.285 90.792 137.945Z" fill="#4C2929"/>
<path d="M99.0963 148.849C80.6336 148.849 88.7237 163.585 94.5728 170.544L109.718 169.726C115.122 163.218 120.611 148.849 99.0963 148.849Z" fill="#FED402"/>
<path d="M100.563 155.644C93.631 155.644 93.127 145.565 93.7416 140.526C93.7416 138.498 103.187 138.617 105.357 139.051C107.2 139.42 107.2 140.895 107.2 141.632L108.122 142.923C108.207 143.929 108.219 145.149 108.103 146.429C108.256 145.653 108.547 145.007 109.044 145.504C109.781 146.241 108.416 148.269 107.641 149.191C106.782 152.578 104.761 155.644 100.563 155.644Z" fill="#F9CB95"/>
<path d="M98.2568 152.942C98.9846 151.398 100.822 149.235 102.35 152.942H98.2568Z" fill="white"/>
<path d="M88.2278 153.147L90.0699 163.38C91.2375 165.716 94.3686 171.499 102.038 171.499C109.708 171.499 114.821 164.985 116.418 161.728L114.016 160.515L109.923 150.691C111.459 151.183 115.449 150.691 117.291 153.147C118.618 154.917 121.028 159.7 121.028 161.174C119.86 161.666 117.303 162.465 116.418 161.728C114.821 164.985 109.708 171.499 102.038 171.499C94.3686 171.499 91.2375 165.716 90.0699 163.38L87.1047 165.784C86.1829 165.108 84.0812 163.497 83.0487 162.465C82.0163 161.433 87.1831 155.728 88.2278 153.147Z" fill="#E7B502"/>
<path d="M93.3447 179.146L94.6672 170.418C100.02 169.952 110.65 169.091 110.348 169.37C110.046 169.65 111.985 172.978 112.993 174.607L111.293 176.004L109.215 175.655C107.64 174.666 103.987 172.635 102.778 172.635C101.569 172.635 99.7053 174.666 98.8236 175.655L97.69 179.146L95.6118 180.368L93.3447 179.146Z" fill="#CB653E"/>
<path d="M83.4173 171.315C83.4173 170.689 83.3558 165.722 83.6017 163.203L86.7359 165.599L85.0766 172.421C85.5068 172.912 86.2934 173.969 85.9984 174.264C85.7034 174.559 85.261 173.957 84.8922 173.527C85.1381 174.387 85.1135 175.924 84.5234 175.924C83.196 175.924 82.9871 174.94 83.0485 174.449C83.3558 173.588 83.4173 171.868 83.4173 171.315Z" fill="#F9CB95"/>
<path d="M121.212 168.918L117.524 162.281L120.843 161.359C121.027 163.694 121.912 168.365 122.502 168.365C123.24 168.365 123.24 172.236 122.871 172.605C122.502 172.974 122.133 171.499 122.133 170.577C122.133 169.84 121.765 169.901 121.58 170.024C121.335 170.208 120.769 170.651 120.474 170.946C120.106 171.315 120.106 170.577 120.29 170.577C120.437 170.577 120.966 169.471 121.212 168.918Z" fill="#F9CB95"/>
<path d="M64.2549 80.062L112.106 51.1816L121.732 65.0555L73.3154 95.3515L64.2549 80.062Z" fill="#F6F4F4"/>
<path d="M111.54 54.2959L68.2197 80.6279L74.732 91.3873L118.336 64.4889L111.54 54.2959Z" stroke="#46776A" stroke-width="1.68432"/>
<path d="M98.5399 67.5012C96.2823 66.312 94.151 68.7401 94.5131 69.8409C94.7082 70.5006 94.7705 70.9345 95.0307 71.1545C95.3394 71.4156 95.3018 71.5694 95.7213 72.3019C96.0569 72.8879 96.7471 72.8436 97.0503 72.7483C97.3629 72.6499 97.3729 72.5501 97.639 73.0149C97.9717 73.5958 99.1586 72.6813 99.5375 72.4643C99.9164 72.2473 99.6705 71.8179 99.5692 71.6411C99.4101 71.3633 99.7961 71.2174 99.9297 71.0992C100.575 70.5282 100.076 69.7741 99.592 69.0453C99.1431 67.793 98.9783 67.7321 98.5399 67.5012Z" fill="#485A51"/>
<path d="M96.1397 71.8613C95.9588 71.4283 95.9349 70.59 97.4602 71.0044C97.8023 72.0748 96.4539 72.4131 96.1397 71.8613Z" fill="#F6F4F4"/>
<path d="M99.5145 69.9643C99.2315 69.5916 98.5091 69.1562 98.0569 70.6989C98.8127 71.528 99.8304 70.5127 99.5145 69.9643Z" fill="#F6F4F4"/>
<path d="M98.0524 71.1009C97.9428 71.028 97.843 71.0867 97.8504 71.2166L97.9197 71.982C97.9234 72.0469 98.0462 72.1443 98.1473 72.0864C98.2483 72.0286 98.336 71.8889 98.3672 71.8263C98.4322 71.8226 98.5261 71.8694 98.6885 71.7429C98.8951 71.5819 98.215 71.2091 98.0524 71.1009Z" fill="#F6F4F4"/>
<path d="M99.0306 67.6562C99.0652 67.529 98.6452 67.2955 98.4309 67.1946C98.6127 67.0905 98.6265 66.6577 98.6107 66.4544C98.1044 65.5703 99.3425 65.3309 99.4694 65.9625C99.9999 65.6588 100.228 66.2326 100.221 66.3373C100.221 66.3373 100.124 66.9295 99.6906 66.8757C99.2412 66.82 98.9875 67.8151 99.0306 67.6562Z" fill="#485A51"/>
<path d="M94.3374 69.4936C94.2129 69.5366 94.2566 70.0152 94.294 70.2491C94.1055 70.1575 93.7402 70.39 93.5811 70.5176C93.136 71.434 92.2406 70.546 92.6909 70.0852C92.1411 69.8182 92.4867 69.3065 92.5772 69.2534C92.5772 69.2534 93.1211 68.9998 93.3208 69.3881C93.5279 69.7907 94.493 69.4397 94.3374 69.4936Z" fill="#485A51"/>
<path d="M95.8685 72.663C95.8449 72.7926 96.2832 72.9896 96.5053 73.072C96.3329 73.1912 96.3559 73.6235 96.389 73.8248C96.9685 74.6627 95.7552 75.0064 95.5751 74.3878C95.0724 74.7355 94.7965 74.1831 94.7947 74.0782C94.7947 74.0782 94.8409 73.4799 95.2772 73.4967C95.7297 73.5141 95.898 72.501 95.8685 72.663Z" fill="#485A51"/>
<path d="M100.368 70.8834C100.497 70.8568 100.516 70.3766 100.509 70.1398C100.684 70.2549 101.076 70.0716 101.25 69.9655C101.81 69.1142 102.583 70.1103 102.077 70.5091C102.588 70.8449 102.179 71.3077 102.083 71.3487C102.083 71.3487 101.511 71.53 101.363 71.1192C101.209 70.6932 100.207 70.9168 100.368 70.8834Z" fill="#485A51"/>
<path d="M73.4515 81.1943C73.4515 82.0697 73.4251 82.9434 73.4169 83.8175C73.4146 84.0665 73.3871 84.3171 73.3498 84.5596C73.331 84.6817 73.2469 84.8669 73.44 84.7974C74.2504 84.5056 74.8994 84.0372 75.6298 83.5989C75.7854 83.5055 76.2472 83.425 76.2472 83.2116C76.2472 82.9681 76.047 82.678 75.9558 82.4542C75.8963 82.3082 75.8103 82.1401 75.7985 81.9805C75.7956 81.9406 75.764 81.8254 75.764 81.8655C75.764 81.9758 75.8591 82.0997 75.9001 82.1972C76.2166 82.9489 76.3358 83.7961 76.6 84.5692C76.6971 84.8531 76.8093 85.133 76.8838 85.4244C76.9251 85.5855 76.9511 85.7501 77.0066 85.9076C77.0427 86.0104 77.118 86.0907 77.1446 86.1972C77.2024 86.4283 77.3172 86.6494 77.3172 86.8894" stroke="black" stroke-opacity="0.66" stroke-width="1.12288" stroke-linecap="round"/>
<path d="M77.8594 83.2693C77.7883 83.352 78.0142 83.1109 78.0641 83.014C78.1726 82.8032 78.234 82.5798 78.283 82.3488C78.3707 81.9351 78.3967 81.5418 78.3967 81.1191C78.3967 80.8264 78.3436 80.5775 78.2943 80.295C78.2822 80.2253 78.2704 80.1581 78.2446 80.0936C78.181 79.935 78.3554 80.4172 78.4223 80.5744C78.5693 80.9205 78.6864 81.2793 78.806 81.6354C78.922 81.9802 79.0695 82.3127 79.1884 82.6566C79.3388 83.092 79.4899 83.529 79.656 83.9586C79.8082 84.3524 79.9238 84.7852 80.1108 85.1585" stroke="black" stroke-opacity="0.66" stroke-width="1.12288" stroke-linecap="round"/>
<path d="M81.62 77.2955C81.1888 77.3494 81.2219 79.0492 81.2736 79.3467C81.4215 80.1969 81.6442 80.9713 82.1894 81.6377C82.5868 82.1234 82.9774 82.3233 83.5846 82.4968C84.617 82.7917 84.8842 81.4285 84.9665 80.7286C85.0775 79.7853 84.8386 79.0836 84.467 78.2578C84.3123 77.9141 84.0523 77.4081 83.7178 77.2222C83.4412 77.0686 81.8597 76.1988 81.8597 76.9958" stroke="black" stroke-opacity="0.66" stroke-width="1.12288" stroke-linecap="round"/>
<path d="M85.5838 74.4644C85.1527 74.5183 85.1858 76.2182 85.2375 76.5156C85.3854 77.3659 85.608 78.1403 86.1532 78.8066C86.5506 79.2923 86.9412 79.4922 87.5485 79.6657C88.5809 79.9607 88.848 78.5974 88.9304 77.8975C89.0413 76.9542 88.8025 76.2526 88.4309 75.4268C88.2762 75.083 88.0162 74.577 87.6817 74.3912C87.4051 74.2375 85.8236 73.3677 85.8236 74.1647" stroke="black" stroke-opacity="0.66" stroke-width="1.12288" stroke-linecap="round"/>
<path d="M90.1131 72.1988C89.682 72.2527 89.7151 73.9525 89.7668 74.25C89.9147 75.1003 90.1373 75.8746 90.6825 76.541C91.0799 77.0267 91.4705 77.2266 92.0778 77.4001C93.1102 77.6951 93.3773 76.3318 93.4597 75.6319C93.5706 74.6886 93.3318 73.987 92.9602 73.1611C92.8055 72.8174 92.5455 72.3114 92.211 72.1255C91.9344 71.9719 90.3529 71.1021 90.3529 71.8991" stroke="black" stroke-opacity="0.66" stroke-width="1.12288" stroke-linecap="round"/>
<path d="M102.228 62.762C102.099 61.9129 102.452 64.4682 102.665 65.3014C102.889 66.1746 103.145 67.0567 103.439 67.912C103.776 68.8924 103.876 69.935 104.031 70.9533" stroke="black" stroke-opacity="0.66" stroke-width="1.12288" stroke-linecap="round"/>
<path d="M105.85 68.5348C105.85 67.3676 105.85 66.2005 105.85 65.0334C105.85 64.4536 105.861 63.8588 105.798 63.2826C105.75 62.847 105.594 62.3785 105.594 61.9447C105.594 61.9269 105.635 61.9777 105.644 61.985C105.782 62.0975 105.904 62.2273 106.03 62.3527C106.38 62.6993 106.775 63.0071 107.086 63.3918C107.542 63.9556 107.805 64.6176 108.391 65.0761C108.716 65.331 108.933 65.6827 109.223 65.9728C109.34 66.0899 109.633 66.3513 109.778 66.3998" stroke="black" stroke-opacity="0.66" stroke-width="1.12288" stroke-linecap="round"/>
<path d="M106.213 65.5204C106.289 65.5119 106.338 65.4374 106.384 65.3828C106.516 65.225 106.673 65.1212 106.844 65.008C107.115 64.8283 107.419 64.6711 107.655 64.4434C107.835 64.2704 108.054 64.1652 108.263 64.0259" stroke="black" stroke-opacity="0.66" stroke-width="1.12288" stroke-linecap="round"/>
<path d="M108.426 60.2422C108.426 60.8944 108.715 61.4611 109.024 62.0261C109.303 62.5391 109.545 63.084 109.844 63.5823C110.256 64.2688 110.571 65.0378 111.073 65.6651" stroke="black" stroke-opacity="0.66" stroke-width="1.12288" stroke-linecap="round"/>
<path d="M109.044 60.4401C108.725 60.0428 109.934 60.8738 110.344 61.1568C111.148 61.7114 111.931 62.296 112.704 62.8994C113.035 63.1583 113.408 63.2753 113.775 63.4545C113.843 63.4879 113.998 63.6395 114.066 63.6395C114.148 63.6395 113.975 63.3954 113.969 63.3865C113.668 62.9368 113.405 62.46 113.117 62C113.007 61.8234 112.858 61.6721 112.766 61.4824C112.616 61.1732 112.523 60.8396 112.344 60.5479C112.068 60.0981 111.794 59.6158 111.566 59.1332C111.478 58.9476 111.333 58.7568 111.333 58.543" stroke="black" stroke-opacity="0.66" stroke-width="1.12288" stroke-linecap="round"/>
<g filter="url(#filter0_f_1023_2147)">
<path d="M57.2765 111.598C53.1459 114.08 36.9531 89.4247 42.9014 86.4462L100.402 50.7038C104.202 48.2217 110.812 43.092 119.404 44.7467C126.509 46.1151 144.133 35.425 154.268 28.5303L159.238 37.0703C148.002 44.5184 130.805 55.7842 130.805 57.6537C130.805 75.0285 79.7482 95.5473 57.2765 111.598Z" fill="#96C1AB" fill-opacity="0.04"/>
</g>
<defs>
<filter id="filter0_f_1023_2147" x="13.5315" y="0.458246" width="173.779" height="139.387" filterUnits="userSpaceOnUse" color-interpolation-filters="sRGB">
<feFlood flood-opacity="0" result="BackgroundImageFix"/>
<feBlend mode="normal" in="SourceGraphic" in2="BackgroundImageFix" result="shape"/>
<feGaussianBlur stdDeviation="14.036" result="effect1_foregroundBlur_1023_2147"/>
</filter>
</defs>
</svg>
