<svg width="205" height="205" viewBox="0 0 205 205" fill="none" xmlns="http://www.w3.org/2000/svg">
<g clip-path="url(#clip0_622_522)">
<path d="M107.86 46.7585C74.2315 29.3645 38.1621 29.4308 22.1897 36.3038C-23.6948 63.8926 14.5886 157.162 22.1897 163.793C35.8389 175.7 185.98 178.604 201.371 153.048C216.763 127.492 179.881 105.421 165.361 92.3525C155.326 83.3215 149.969 68.5391 107.86 46.7585Z" fill="#FEF3C8" fill-opacity="0.8"/>
<path d="M106.427 118.503L108.454 88.7725L125.909 97.2187L122.418 116.476L106.427 118.503Z" fill="#392809"/>
<path d="M87.8456 132.501C91.1115 131.15 78.1603 129.686 89.6471 107.388C98.206 104.009 114.243 98.6146 112.621 100.597C110.999 102.579 115.061 122.144 114.761 134.607C101.585 133.105 85.2329 133.582 87.8456 132.501Z" fill="#CFAD82"/>
<path d="M120.504 73.5694C121.18 64.3349 105.188 56.4517 100.233 56.9022C96.8547 59.9804 89.5572 66.362 87.395 67.2629C84.6922 68.389 81.2007 105.023 85.4802 112.681C89.7596 120.339 84.5792 118.537 104.4 117.411C124.22 116.285 119.828 82.8039 120.504 73.5694Z" fill="#E3C7A1"/>
<path d="M78.0477 82.0156C84.9849 54.267 103.236 51.8345 111.495 54.0868C134.694 57.5779 129.175 79.6507 131.991 84.0427C134.806 88.4347 123.319 124.584 123.319 128.864C123.319 133.143 111.495 149.022 108.792 152.513C106.089 156.004 113.86 131.679 117.801 127.287C121.743 122.895 126.022 100.147 123.319 100.147C120.617 100.147 116.562 84.0427 116.225 79.6506C115.887 75.2586 112.621 64.7069 103.612 64.7069C94.6023 64.7069 89.6472 75.4839 87.2822 83.0291C84.9173 90.5744 90.7462 97.5424 90.0976 102.659C89.0841 110.654 89.6472 121.431 91.2238 128.864C92.8004 136.297 80.4127 145.081 78.0477 149.022C75.6828 152.964 75.7379 143.559 78.0477 137.232C80.0748 131.679 78.0477 128.076 78.0477 121.431C78.0477 114.787 74.444 128.864 71.7412 131.679C69.0384 134.495 71.7412 148.234 67.7997 155.329C63.8581 162.423 67.7997 137.197 67.7997 131.679C67.7997 126.161 69.3763 116.701 78.0477 82.0156Z" fill="#7A520B"/>
<path d="M82.5518 87.5333C85.4348 62.4875 98.0929 57.8027 104.062 58.591C98.7685 58.591 98.2055 63.9966 91.5612 68.3886C86.2457 71.9022 84.9168 85.9943 84.9168 92.6011C83.7699 94.5906 82.1641 101.588 84.9168 113.66C87.6696 125.733 84.4871 137.535 82.5518 141.927V127.512C82.5518 122.67 78.9481 118.841 82.5518 87.5333Z" fill="#5E3F07"/>
<path d="M123.544 87.5333C122.823 79.7854 115.286 65.0101 111.607 58.591C115.06 60.468 119.22 65.9561 122.643 69.2895C126.923 73.4563 126.247 97.4436 126.247 101.498C126.247 105.552 120.729 128.526 115.323 134.607C112.11 138.221 122.418 114.336 122.643 106.565C122.868 98.795 124.445 97.2183 123.544 87.5333Z" fill="#5E3F07"/>
<path d="M82.85 73.0683C83.5391 72.6003 84.2821 72.523 85.061 73.0683C87.7638 74.9602 85.9619 81.3643 84.8357 84.3299C83.9723 85.6062 82.3131 88.5642 82.5834 90.1859C82.8537 91.8076 88.1016 89.0598 90.6917 87.4832C95.1213 87.7084 104.544 88.7895 106.796 91.3121C108.03 92.694 108.42 93.9462 107.825 94.8032C114.503 95.7942 112.624 99.4955 110.85 101.222C113.27 104.105 109.842 106.102 107.825 106.74C105.922 107.838 102.508 109.453 98.8909 110.433C102.027 110.288 105.12 109.886 106.796 108.88C111.864 105.84 115.918 109.668 108.598 113.272C101.278 116.876 97.4487 117.552 94.0702 117.326C90.6917 117.101 89.3403 118.678 87.088 118.453C85.2862 118.272 80.5563 124.309 78.4166 127.349C76.5772 130.127 71.5921 135.976 66.3667 137.147C61.1413 138.318 53.1531 145.818 49.8121 149.422C48.9928 162.908 37.1991 164.332 28.6403 163.161C25.0947 161.76 18.1249 108.88 27.9646 105.276L49.8121 95.5915C51.4639 94.165 54.2718 89.4877 52.2897 82.1902C47.1094 81.6271 45.5327 72.0547 45.5327 69.915C45.5327 67.7753 39.001 60.1174 43.2804 47.054C46.704 36.6032 63.251 33.6151 71.0966 33.4274C75.6388 33.1271 85.5339 35.1167 88.7773 45.4773C90.0536 49.494 92.2233 57.9327 90.6917 59.5543C89.1602 61.176 81.8327 71.0412 82.4708 73.0683H82.85Z" fill="#F68053"/>
<path d="M147.757 161.999H44.6006C44.6006 138.687 72.1915 116.389 82.89 123.822C93.5886 131.254 106.089 121.457 128.95 123.822C147.239 125.714 149.859 152.839 147.757 161.999Z" fill="#E8CE6E"/>
<path d="M87.7624 97.393C86.3001 96.6047 85.737 96.4921 85.9605 95.3659C87.0884 97.0383 104.851 94.3244 105.977 95.1127C104.738 95.4505 90.4669 96.6047 87.7624 97.393Z" fill="#CB653E"/>
<path d="M87.7624 103.7C90.1949 104.33 105.151 102.057 110.819 101.194C110.369 102.545 94.2566 104.413 87.7624 104.826C86.7488 104.188 85.3299 103.069 87.7624 103.7Z" fill="#CB653E"/>
<path d="M89.2264 110.569C94.3617 112.551 102.861 108.964 107.328 106.825C106.517 109.888 96.3963 111.583 90.5778 112.146C87.9876 110.794 84.0911 108.587 89.2264 110.569Z" fill="#CB653E"/>
<path d="M78.7531 99.9832C77.3116 99.2624 78.1525 96.6047 78.7531 95.3659C78.6405 95.0656 78.2576 94.8028 77.6269 96.1542C76.9963 97.5056 77.5143 99.4952 77.8521 100.321C78.7531 100.509 80.1946 100.704 78.7531 99.9832Z" fill="#CB653E"/>
<path d="M79.8792 105.952C79.3387 105.501 79.4288 103.887 79.5414 103.136C79.5414 102.686 80.1045 102.686 80.2171 103.136C80.2171 103.925 80.2922 104.826 80.5549 105.614C80.8928 105.952 81.636 106.943 81.9063 108.204C82.1766 109.465 82.9949 110.081 83.3703 110.231C83.5205 110.456 83.6857 110.929 83.1451 111.02C82.6045 111.11 81.6436 109.931 81.2306 109.33C81.0054 108.392 80.4198 106.402 79.8792 105.952Z" fill="#CB653E"/>
<path d="M87.5371 117.664C86.7263 117.664 85.7728 116.012 85.3974 115.186C85.2097 114.999 84.8569 114.826 84.947 115.637C85.0371 116.448 86.486 117.626 87.1993 118.114C87.6497 117.964 88.348 117.664 87.5371 117.664Z" fill="#CB653E"/>
<path d="M74.9245 121.38C74.1137 121.38 71.6962 119.691 71.0956 118.903C70.6451 118.311 69.8581 118.227 70.6464 119.916C71.8854 123.295 77.5144 122.506 79.5415 121.493C81.1632 120.682 80.3297 120.629 79.5414 120.592C77.9652 121.268 75.7354 121.38 74.9245 121.38Z" fill="#CB653E"/>
<path d="M84.3856 83.7664C83.1257 85.2079 80.4822 84.5923 79.3179 84.1043C78.7173 84.0668 77.944 84.1494 79.6558 84.78C81.3675 85.4107 83.5973 84.6674 84.4982 84.2169C84.9857 83.4661 85.6455 82.325 84.3856 83.7664Z" fill="#CB653E"/>
<path d="M79.3179 87.4828C78.1467 86.3116 76.9905 86.6945 76.2773 87.1449C75.6016 87.1825 75.2637 87.1449 76.1647 86.6945C78.025 85.7643 79.3179 86.732 79.6558 87.1449C80.0311 87.7456 80.4891 88.654 79.3179 87.4828Z" fill="#CB653E"/>
<path d="M72.8988 92.7757L65.3535 111.02C66.2544 110.682 73.6871 95.929 73.4619 94.6902C73.2817 93.6992 74.2877 89.4723 74.8133 87.4828C75.489 85.1178 77.0656 84.3295 78.0791 82.8655C79.2503 78.9014 81.9444 74.4569 83.1451 72.7301C86.9371 67.9251 93.8003 58.4504 90.9174 58.9909C88.0344 59.5315 84.5346 65.898 83.1451 69.0138C83.1451 69.5768 82.695 71.221 80.8945 73.2932C78.644 75.8833 78.3044 79.8249 76.1647 82.0772C74.4529 83.8791 73.2742 89.9603 72.8988 92.7757Z" fill="#CB653E"/>
<path d="M154.928 134.5C158.802 142.789 151.887 156.348 147.946 162.091C147.495 160.627 146.865 156.37 147.946 151.055C149.027 145.739 144.192 142.308 141.639 141.257C139.537 140.131 134.995 137.879 133.644 137.879C131.954 137.879 122.495 135.514 121.368 136.752C120.468 137.743 115.212 137.916 112.697 137.879C111.684 138.554 108.981 140.581 102.449 138.554C98.5074 137.09 99.2955 133.364 102.674 133.824C101.848 133.562 99.6786 133.599 98.5074 133.149C96.2549 133.824 94.1153 128.081 98.5074 128.531C96.119 127.764 96.2342 122.796 99.4074 122.652C96.0827 122.36 98.7391 119.385 99.9715 119.297C101.548 119.184 110.332 114.68 113.936 112.99C117.54 111.301 123.17 112.765 123.733 114.117C124.184 115.198 132.18 120.273 136.121 122.675C140.776 123.163 151.054 126.212 154.928 134.5Z" fill="#F68053"/>
<path d="M116.977 117.27C114.814 121.234 104.814 122.45 100.084 122.563C105.22 123.644 111.684 121.512 114.95 120.086C117.315 118.621 118.328 116.031 116.977 117.27Z" fill="#CB653E"/>
<path d="M112.247 127.518C110.175 128.689 102.975 128.494 99.2959 128.419C98.1697 127.969 96.931 128.644 100.535 129.545C104.679 129.816 110.67 128.607 113.148 127.969C114.424 127.105 116.977 125.288 116.977 124.928C116.977 124.478 114.837 126.054 112.247 127.518Z" fill="#CB653E"/>
<path d="M109.206 134.5C108.756 134.681 105.565 134.238 103.575 133.937L102.449 133.825C104.101 134.163 107.855 135.154 108.756 135.063C109.882 134.951 112.247 133.825 112.923 133.487C113.598 133.149 116.301 133.262 117.315 133.487C118.328 133.712 117.878 133.036 117.315 133.036H113.148C112.134 133.036 109.769 134.275 109.206 134.5Z" fill="#CB653E"/>
<path d="M122.27 119.522C121.909 120.604 119.191 121.775 117.878 122.225C117.802 122.3 118.013 122.405 119.454 122.225C120.896 122.045 122.157 120.498 122.607 119.748C122.645 119.222 122.63 118.441 122.27 119.522Z" fill="#CB653E"/>
<path d="M122.607 125.829C122.517 126.64 120.468 127.668 119.454 128.081C119.454 128.194 119.544 128.419 119.905 128.419C120.355 128.419 120.806 127.969 121.707 127.518C122.427 127.158 122.833 126.242 122.945 125.829C122.87 125.491 122.698 125.018 122.607 125.829Z" fill="#CB653E"/>
<path d="M122.27 131.91C121.729 131.91 120.693 133.036 120.243 133.599C120.243 133.787 120.355 134.14 120.806 133.599C121.369 132.924 121.481 132.586 122.27 132.473C123.058 132.361 123.846 130.784 124.297 130.221C124.657 129.771 124.447 129.358 124.297 129.207C124.184 129.207 123.981 129.252 124.071 129.433C124.184 129.658 122.945 131.91 122.27 131.91Z" fill="#CB653E"/>
<path d="M131.955 134.951C131.504 135.041 130.115 136.415 129.477 137.091L129.927 137.203C130.378 136.678 131.482 135.582 132.292 135.401C133.103 135.221 133.156 133.299 133.081 132.361C132.78 131.91 132.27 131.235 132.63 132.135C133.081 133.262 132.518 134.838 131.955 134.951Z" fill="#CB653E"/>
</g>
<defs>
<clipPath id="clip0_622_522">
<rect width="205" height="205" fill="white"/>
</clipPath>
</defs>
</svg>
