<svg width="313" height="297" viewBox="0 0 313 297" fill="none" xmlns="http://www.w3.org/2000/svg">
<path d="M302 294L13 288.777C106.483 288.777 20.9803 27.0259 141.254 12.5165C261.529 -1.99286 302 294 302 294Z" fill="#FEF5D6"/>
<path d="M15.3845 279.043C10.3415 279.043 5.64231 264.348 7.36159 257H44.6107C44.6107 258.397 44.5634 259.715 44.4752 260.957C54.3528 251.348 56.072 280.739 40.0346 275.652C38.5949 277.644 37.0995 278.687 36.0148 279.043V283H15.3845V279.043Z" fill="#CB653E"/>
<rect y="283" width="313" height="14" rx="3" fill="#6C5454"/>
<path d="M18.7238 238.247C6.13081 231.305 38.759 223.785 27.8826 218C37.0417 218 29.0275 228.799 22.1588 234.198C29.9819 236.512 45.0556 241.95 42.7659 245.189C37.7286 250.28 20.8231 247.31 13 245.189C46.4294 245.189 27.8826 242.297 18.7238 238.247Z" fill="#C7CBD1" fill-opacity="0.5"/>
<path d="M76.4296 250.407C87.2505 195.88 129.395 183.384 148.189 176L157 203.832L137.067 222.007C106.123 242.077 60.0275 264.948 76.4296 250.407Z" fill="#F0C141"/>
<path d="M179.133 257.929C181.529 255.548 217.67 250.984 235.44 249C243.627 256.143 260 270.667 260 271.619C260 272.571 235.241 273.603 222.861 274C207.287 269.635 176.737 260.31 179.133 257.929Z" fill="#F9CB95"/>
<path d="M264.945 270.742C287.691 248.156 207.51 153.863 203.53 168.544L195 202.986C195.758 202.798 197.275 203.438 197.275 207.503C197.275 211.568 225.707 236.299 239.924 248.156C233.858 248.721 222.978 249.85 227.982 249.85C232.986 249.85 250.16 265.283 258.121 273L264.945 270.742Z" fill="#F0C141"/>
<path d="M169.054 135.515C168.563 148.344 176.945 158.839 183.904 163.649L159.144 207.683L135.344 153.584L169.054 135.515Z" fill="#FDD9AF"/>
<path d="M124.664 265.423C103.512 192.758 131.522 185.319 144.1 176.737C160.869 185.701 176.114 193.33 180.116 159C220.705 174.448 218.99 150.418 218.99 265.423L124.664 270V265.423Z" fill="#FED304"/>
<path d="M172.531 109.345C169.634 104.327 164.917 110.643 162.921 114.429L168.357 135.917C170.956 129.151 175.429 114.363 172.531 109.345Z" fill="#F9CB95"/>
<path d="M169.661 125.178C175.783 148.026 167.291 170.154 150.692 174.602C134.094 179.049 118.592 161.072 112.47 138.224C106.348 115.375 111.923 96.3066 128.521 91.8591C145.12 87.4116 163.539 102.329 169.661 125.178Z" fill="#FBDFBE"/>
<path d="M113.149 122.984C111.648 126.915 110.94 132.752 111.822 137.283C112.467 138.481 112.947 139.755 113.149 141.069C112.534 140.002 112.099 138.707 111.822 137.283C109.956 133.813 106.718 130.974 104.893 129.61C79.3874 122.775 84.5362 108.837 90.2989 102.721C101.981 92.1045 132.162 72.697 159.427 80.0027C186.692 87.3084 178.653 126.985 170.563 148.384C171.561 144.66 171.378 140.943 170.182 130.018C171.149 121.4 174.428 113.613 172.186 109.345C171.752 108.518 171.022 108.19 170.282 107.656C167.448 107.237 165.102 111.663 164.257 112.615C154.747 95.3372 124.798 117.704 113.149 122.984Z" fill="#643E0D"/>
<path d="M71.5525 256.605C64.2822 233.623 130.795 228.815 164.407 216.15L171.53 223.425C136.285 244.884 78.8227 279.587 71.5525 256.605Z" fill="#F9CB95"/>
<rect x="85" y="198" width="137" height="85" fill="#D9D9D9"/>
<path d="M86 282V277H222V282H86Z" fill="#CDCDCD"/>
<path d="M273.709 262C268.89 235.937 290.018 215.747 295.577 204C302.99 227.494 292.241 249.519 278.898 262H273.709Z" fill="#355509"/>
<path d="M271.72 197C263.329 221.835 264.495 252.193 273.093 262.879C290.488 247.544 278.154 212.339 271.72 197Z" fill="#3B5A30"/>
<path d="M254 218C254 232.42 254 252.017 273 262C273 228.279 259.481 223.546 254 218Z" fill="#355509"/>
<path d="M265 283V262H287V283H265Z" fill="#C99CD9"/>
<g clip-path="url(#clip0_1048_1099)">
<path d="M211 35.5C207.854 31.3956 205.222 24.9967 210.842 15.3446C218.591 2.02828 238.312 2.67833 248.362 10.5246C257.333 17.5362 267.638 35.3768 245.505 54.7891C230.001 68.3956 224.858 74.7913 223.165 77.4071C222.589 78.3003 221.51 78.7487 220.47 78.4979C219.101 78.1607 218.285 76.761 218.661 75.4007C219.776 71.3785 222.95 63.0699 231.505 54.3022C243.463 42.0514 252.039 31.5735 242.975 19.7267C234.5 11.0001 217.489 12.294 219.243 29.1218C219.316 33.2443 214 39.5 211 35.5Z" fill="#A65A3E"/>
<path d="M216.695 92.3333C214.802 90.8895 214.484 88.8454 214.851 87.3495C215.475 84.7842 217.86 83.17 220.182 83.7378C222.504 84.3055 223.12 86.6548 222.498 89.2104C221.874 91.7758 218.99 94.0852 216.695 92.3333Z" fill="#A65A3E"/>
</g>
<defs>
<clipPath id="clip0_1048_1099">
<rect width="51.94" height="89.44" fill="white" transform="translate(213.152) rotate(13.0213)"/>
</clipPath>
</defs>
</svg>
