<svg width="449" height="380" viewBox="0 0 449 380" fill="none" xmlns="http://www.w3.org/2000/svg">
<circle cx="145" cy="1" r="1" fill="#666666"/>
<circle cx="145" cy="145" r="1" fill="#666666"/>
<circle cx="145" cy="325" r="1" fill="#666666"/>
<circle cx="145" cy="19" r="1" fill="#666666"/>
<circle cx="145" cy="163" r="1" fill="#666666"/>
<circle cx="145" cy="343" r="1" fill="#666666"/>
<circle cx="145" cy="37" r="1" fill="#666666"/>
<circle cx="145" cy="181" r="1" fill="#666666"/>
<circle cx="145" cy="361" r="1" fill="#666666"/>
<circle cx="145" cy="379" r="1" fill="#666666"/>
<circle cx="145" cy="55" r="1" fill="#666666"/>
<circle cx="145" cy="199" r="1" fill="#666666"/>
<circle cx="271" cy="1" r="1" fill="#666666"/>
<circle cx="271" cy="145" r="1" fill="#666666"/>
<circle cx="271" cy="325" r="1" fill="#666666"/>
<circle cx="271" cy="19" r="1" fill="#666666"/>
<circle cx="271" cy="163" r="1" fill="#666666"/>
<circle cx="271" cy="343" r="1" fill="#666666"/>
<circle cx="271" cy="37" r="1" fill="#666666"/>
<circle cx="271" cy="181" r="1" fill="#666666"/>
<circle cx="271" cy="361" r="1" fill="#666666"/>
<circle cx="271" cy="379" r="1" fill="#666666"/>
<circle cx="271" cy="55" r="1" fill="#666666"/>
<circle cx="271" cy="199" r="1" fill="#666666"/>
<circle cx="19" cy="1" r="1" fill="#666666"/>
<circle cx="19" cy="145" r="1" fill="#666666"/>
<circle cx="19" cy="325" r="1" fill="#666666"/>
<circle cx="19" cy="19" r="1" fill="#666666"/>
<circle cx="19" cy="163" r="1" fill="#666666"/>
<circle cx="19" cy="343" r="1" fill="#666666"/>
<circle cx="19" cy="37" r="1" fill="#666666"/>
<circle cx="19" cy="181" r="1" fill="#666666"/>
<circle cx="19" cy="361" r="1" fill="#666666"/>
<circle cx="19" cy="379" r="1" fill="#666666"/>
<circle cx="19" cy="55" r="1" fill="#666666"/>
<circle cx="19" cy="199" r="1" fill="#666666"/>
<circle cx="289" cy="1" r="1" fill="#666666"/>
<circle cx="289" cy="145" r="1" fill="#666666"/>
<circle cx="289" cy="325" r="1" fill="#666666"/>
<circle cx="289" cy="19" r="1" fill="#666666"/>
<circle cx="289" cy="163" r="1" fill="#666666"/>
<circle cx="289" cy="343" r="1" fill="#666666"/>
<circle cx="289" cy="37" r="1" fill="#666666"/>
<circle cx="289" cy="181" r="1" fill="#666666"/>
<circle cx="289" cy="361" r="1" fill="#666666"/>
<circle cx="289" cy="379" r="1" fill="#666666"/>
<circle cx="289" cy="55" r="1" fill="#666666"/>
<circle cx="289" cy="199" r="1" fill="#666666"/>
<circle cx="163" cy="1" r="1" fill="#666666"/>
<circle cx="163" cy="145" r="1" fill="#666666"/>
<circle cx="163" cy="325" r="1" fill="#666666"/>
<circle cx="163" cy="19" r="1" fill="#666666"/>
<circle cx="163" cy="163" r="1" fill="#666666"/>
<circle cx="163" cy="343" r="1" fill="#666666"/>
<circle cx="163" cy="37" r="1" fill="#666666"/>
<circle cx="163" cy="181" r="1" fill="#666666"/>
<circle cx="163" cy="361" r="1" fill="#666666"/>
<circle cx="163" cy="379" r="1" fill="#666666"/>
<circle cx="163" cy="55" r="1" fill="#666666"/>
<circle cx="163" cy="199" r="1" fill="#666666"/>
<circle cx="307" cy="1" r="1" fill="#666666"/>
<circle cx="307" cy="145" r="1" fill="#666666"/>
<circle cx="307" cy="325" r="1" fill="#666666"/>
<circle cx="307" cy="19" r="1" fill="#666666"/>
<circle cx="307" cy="163" r="1" fill="#666666"/>
<circle cx="307" cy="343" r="1" fill="#666666"/>
<circle cx="307" cy="37" r="1" fill="#666666"/>
<circle cx="307" cy="181" r="1" fill="#666666"/>
<circle cx="307" cy="361" r="1" fill="#666666"/>
<circle cx="307" cy="379" r="1" fill="#666666"/>
<circle cx="307" cy="55" r="1" fill="#666666"/>
<circle cx="307" cy="199" r="1" fill="#666666"/>
<circle cx="37" cy="1" r="1" fill="#666666"/>
<circle cx="37" cy="145" r="1" fill="#666666"/>
<circle cx="37" cy="325" r="1" fill="#666666"/>
<circle cx="37" cy="19" r="1" fill="#666666"/>
<circle cx="37" cy="163" r="1" fill="#666666"/>
<circle cx="37" cy="343" r="1" fill="#666666"/>
<circle cx="37" cy="37" r="1" fill="#666666"/>
<circle cx="37" cy="181" r="1" fill="#666666"/>
<circle cx="37" cy="361" r="1" fill="#666666"/>
<circle cx="37" cy="379" r="1" fill="#666666"/>
<circle cx="37" cy="55" r="1" fill="#666666"/>
<circle cx="37" cy="199" r="1" fill="#666666"/>
<circle cx="325" cy="1" r="1" fill="#666666"/>
<circle cx="325" cy="145" r="1" fill="#666666"/>
<circle cx="325" cy="325" r="1" fill="#666666"/>
<circle cx="325" cy="19" r="1" fill="#666666"/>
<circle cx="325" cy="163" r="1" fill="#666666"/>
<circle cx="325" cy="343" r="1" fill="#666666"/>
<circle cx="325" cy="37" r="1" fill="#666666"/>
<circle cx="325" cy="181" r="1" fill="#666666"/>
<circle cx="325" cy="361" r="1" fill="#666666"/>
<circle cx="325" cy="379" r="1" fill="#666666"/>
<circle cx="325" cy="55" r="1" fill="#666666"/>
<circle cx="325" cy="199" r="1" fill="#666666"/>
<circle cx="181" cy="1" r="1" fill="#666666"/>
<circle cx="181" cy="145" r="1" fill="#666666"/>
<circle cx="181" cy="325" r="1" fill="#666666"/>
<circle cx="181" cy="19" r="1" fill="#666666"/>
<circle cx="181" cy="163" r="1" fill="#666666"/>
<circle cx="181" cy="343" r="1" fill="#666666"/>
<circle cx="181" cy="37" r="1" fill="#666666"/>
<circle cx="181" cy="181" r="1" fill="#666666"/>
<circle cx="181" cy="361" r="1" fill="#666666"/>
<circle cx="181" cy="379" r="1" fill="#666666"/>
<circle cx="181" cy="55" r="1" fill="#666666"/>
<circle cx="181" cy="199" r="1" fill="#666666"/>
<circle cx="343" cy="1" r="1" fill="#666666"/>
<circle cx="343" cy="145" r="1" fill="#666666"/>
<circle cx="343" cy="325" r="1" fill="#666666"/>
<circle cx="343" cy="19" r="1" fill="#666666"/>
<circle cx="343" cy="163" r="1" fill="#666666"/>
<circle cx="343" cy="343" r="1" fill="#666666"/>
<circle cx="343" cy="37" r="1" fill="#666666"/>
<circle cx="343" cy="181" r="1" fill="#666666"/>
<circle cx="343" cy="361" r="1" fill="#666666"/>
<circle cx="343" cy="379" r="1" fill="#666666"/>
<circle cx="343" cy="55" r="1" fill="#666666"/>
<circle cx="343" cy="199" r="1" fill="#666666"/>
<circle cx="55" cy="1" r="1" fill="#666666"/>
<circle cx="55" cy="145" r="1" fill="#666666"/>
<circle cx="55" cy="325" r="1" fill="#666666"/>
<circle cx="55" cy="19" r="1" fill="#666666"/>
<circle cx="55" cy="163" r="1" fill="#666666"/>
<circle cx="55" cy="343" r="1" fill="#666666"/>
<circle cx="55" cy="37" r="1" fill="#666666"/>
<circle cx="55" cy="181" r="1" fill="#666666"/>
<circle cx="55" cy="361" r="1" fill="#666666"/>
<circle cx="55" cy="379" r="1" fill="#666666"/>
<circle cx="55" cy="55" r="1" fill="#666666"/>
<circle cx="55" cy="199" r="1" fill="#666666"/>
<circle cx="361" cy="1" r="1" fill="#666666"/>
<circle cx="361" cy="145" r="1" fill="#666666"/>
<circle cx="361" cy="325" r="1" fill="#666666"/>
<circle cx="361" cy="19" r="1" fill="#666666"/>
<circle cx="361" cy="163" r="1" fill="#666666"/>
<circle cx="361" cy="343" r="1" fill="#666666"/>
<circle cx="361" cy="37" r="1" fill="#666666"/>
<circle cx="361" cy="181" r="1" fill="#666666"/>
<circle cx="361" cy="361" r="1" fill="#666666"/>
<circle cx="361" cy="379" r="1" fill="#666666"/>
<circle cx="361" cy="55" r="1" fill="#666666"/>
<circle cx="361" cy="199" r="1" fill="#666666"/>
<circle cx="253" cy="1" r="1" fill="#666666"/>
<circle cx="253" cy="145" r="1" fill="#666666"/>
<circle cx="253" cy="325" r="1" fill="#666666"/>
<circle cx="253" cy="19" r="1" fill="#666666"/>
<circle cx="253" cy="163" r="1" fill="#666666"/>
<circle cx="253" cy="343" r="1" fill="#666666"/>
<circle cx="253" cy="37" r="1" fill="#666666"/>
<circle cx="253" cy="181" r="1" fill="#666666"/>
<circle cx="253" cy="361" r="1" fill="#666666"/>
<circle cx="253" cy="379" r="1" fill="#666666"/>
<circle cx="253" cy="55" r="1" fill="#666666"/>
<circle cx="253" cy="199" r="1" fill="#666666"/>
<circle cx="379" cy="1" r="1" fill="#666666"/>
<circle cx="379" cy="145" r="1" fill="#666666"/>
<circle cx="379" cy="325" r="1" fill="#666666"/>
<circle cx="379" cy="19" r="1" fill="#666666"/>
<circle cx="379" cy="163" r="1" fill="#666666"/>
<circle cx="379" cy="343" r="1" fill="#666666"/>
<circle cx="379" cy="37" r="1" fill="#666666"/>
<circle cx="379" cy="181" r="1" fill="#666666"/>
<circle cx="379" cy="361" r="1" fill="#666666"/>
<circle cx="379" cy="379" r="1" fill="#666666"/>
<circle cx="379" cy="55" r="1" fill="#666666"/>
<circle cx="379" cy="199" r="1" fill="#666666"/>
<circle cx="199" cy="1" r="1" fill="#666666"/>
<circle cx="199" cy="145" r="1" fill="#666666"/>
<circle cx="199" cy="325" r="1" fill="#666666"/>
<circle cx="199" cy="19" r="1" fill="#666666"/>
<circle cx="199" cy="163" r="1" fill="#666666"/>
<circle cx="199" cy="343" r="1" fill="#666666"/>
<circle cx="199" cy="37" r="1" fill="#666666"/>
<circle cx="199" cy="181" r="1" fill="#666666"/>
<circle cx="199" cy="361" r="1" fill="#666666"/>
<circle cx="199" cy="379" r="1" fill="#666666"/>
<circle cx="199" cy="55" r="1" fill="#666666"/>
<circle cx="199" cy="199" r="1" fill="#666666"/>
<circle cx="73" cy="1" r="1" fill="#666666"/>
<circle cx="73" cy="145" r="1" fill="#666666"/>
<circle cx="73" cy="325" r="1" fill="#666666"/>
<circle cx="73" cy="19" r="1" fill="#666666"/>
<circle cx="73" cy="163" r="1" fill="#666666"/>
<circle cx="73" cy="343" r="1" fill="#666666"/>
<circle cx="73" cy="37" r="1" fill="#666666"/>
<circle cx="73" cy="181" r="1" fill="#666666"/>
<circle cx="73" cy="361" r="1" fill="#666666"/>
<circle cx="73" cy="379" r="1" fill="#666666"/>
<circle cx="73" cy="55" r="1" fill="#666666"/>
<circle cx="73" cy="199" r="1" fill="#666666"/>
<circle cx="217" cy="1" r="1" fill="#666666"/>
<circle cx="217" cy="145" r="1" fill="#666666"/>
<circle cx="217" cy="325" r="1" fill="#666666"/>
<circle cx="217" cy="19" r="1" fill="#666666"/>
<circle cx="217" cy="163" r="1" fill="#666666"/>
<circle cx="217" cy="343" r="1" fill="#666666"/>
<circle cx="217" cy="37" r="1" fill="#666666"/>
<circle cx="217" cy="181" r="1" fill="#666666"/>
<circle cx="217" cy="361" r="1" fill="#666666"/>
<circle cx="217" cy="379" r="1" fill="#666666"/>
<circle cx="217" cy="55" r="1" fill="#666666"/>
<circle cx="217" cy="199" r="1" fill="#666666"/>
<circle cx="91" cy="1" r="1" fill="#666666"/>
<circle cx="91" cy="145" r="1" fill="#666666"/>
<circle cx="91" cy="325" r="1" fill="#666666"/>
<circle cx="91" cy="19" r="1" fill="#666666"/>
<circle cx="91" cy="163" r="1" fill="#666666"/>
<circle cx="91" cy="343" r="1" fill="#666666"/>
<circle cx="91" cy="37" r="1" fill="#666666"/>
<circle cx="91" cy="181" r="1" fill="#666666"/>
<circle cx="91" cy="361" r="1" fill="#666666"/>
<circle cx="91" cy="379" r="1" fill="#666666"/>
<circle cx="91" cy="55" r="1" fill="#666666"/>
<circle cx="91" cy="199" r="1" fill="#666666"/>
<circle cx="235" cy="1" r="1" fill="#666666"/>
<circle cx="235" cy="145" r="1" fill="#666666"/>
<circle cx="235" cy="325" r="1" fill="#666666"/>
<circle cx="235" cy="19" r="1" fill="#666666"/>
<circle cx="235" cy="163" r="1" fill="#666666"/>
<circle cx="235" cy="343" r="1" fill="#666666"/>
<circle cx="235" cy="37" r="1" fill="#666666"/>
<circle cx="235" cy="181" r="1" fill="#666666"/>
<circle cx="235" cy="361" r="1" fill="#666666"/>
<circle cx="235" cy="379" r="1" fill="#666666"/>
<circle cx="235" cy="55" r="1" fill="#666666"/>
<circle cx="235" cy="199" r="1" fill="#666666"/>
<circle cx="109" cy="1" r="1" fill="#666666"/>
<circle cx="109" cy="145" r="1" fill="#666666"/>
<circle cx="109" cy="325" r="1" fill="#666666"/>
<circle cx="109" cy="19" r="1" fill="#666666"/>
<circle cx="109" cy="163" r="1" fill="#666666"/>
<circle cx="109" cy="343" r="1" fill="#666666"/>
<circle cx="109" cy="37" r="1" fill="#666666"/>
<circle cx="109" cy="181" r="1" fill="#666666"/>
<circle cx="109" cy="361" r="1" fill="#666666"/>
<circle cx="109" cy="379" r="1" fill="#666666"/>
<circle cx="109" cy="55" r="1" fill="#666666"/>
<circle cx="109" cy="199" r="1" fill="#666666"/>
<circle cx="1" cy="1" r="1" fill="#666666"/>
<circle cx="1" cy="145" r="1" fill="#666666"/>
<circle cx="1" cy="325" r="1" fill="#666666"/>
<circle cx="1" cy="19" r="1" fill="#666666"/>
<circle cx="1" cy="163" r="1" fill="#666666"/>
<circle cx="1" cy="343" r="1" fill="#666666"/>
<circle cx="1" cy="37" r="1" fill="#666666"/>
<circle cx="1" cy="181" r="1" fill="#666666"/>
<circle cx="1" cy="361" r="1" fill="#666666"/>
<circle cx="1" cy="379" r="1" fill="#666666"/>
<circle cx="1" cy="55" r="1" fill="#666666"/>
<circle cx="1" cy="199" r="1" fill="#666666"/>
<circle cx="127" cy="1" r="1" fill="#666666"/>
<circle cx="127" cy="145" r="1" fill="#666666"/>
<circle cx="127" cy="325" r="1" fill="#666666"/>
<circle cx="127" cy="19" r="1" fill="#666666"/>
<circle cx="127" cy="163" r="1" fill="#666666"/>
<circle cx="127" cy="343" r="1" fill="#666666"/>
<circle cx="127" cy="37" r="1" fill="#666666"/>
<circle cx="127" cy="181" r="1" fill="#666666"/>
<circle cx="127" cy="361" r="1" fill="#666666"/>
<circle cx="127" cy="379" r="1" fill="#666666"/>
<circle cx="127" cy="55" r="1" fill="#666666"/>
<circle cx="127" cy="199" r="1" fill="#666666"/>
<circle cx="145" cy="73" r="1" fill="#666666"/>
<circle cx="145" cy="217" r="1" fill="#666666"/>
<circle cx="145" cy="91" r="1" fill="#666666"/>
<circle cx="145" cy="235" r="1" fill="#666666"/>
<circle cx="145" cy="109" r="1" fill="#666666"/>
<circle cx="145" cy="289" r="1" fill="#666666"/>
<circle cx="145" cy="253" r="1" fill="#666666"/>
<circle cx="145" cy="127" r="1" fill="#666666"/>
<circle cx="145" cy="307" r="1" fill="#666666"/>
<circle cx="145" cy="271" r="1" fill="#666666"/>
<circle cx="271" cy="73" r="1" fill="#666666"/>
<circle cx="271" cy="217" r="1" fill="#666666"/>
<circle cx="271" cy="91" r="1" fill="#666666"/>
<circle cx="271" cy="235" r="1" fill="#666666"/>
<circle cx="271" cy="109" r="1" fill="#666666"/>
<circle cx="271" cy="289" r="1" fill="#666666"/>
<circle cx="271" cy="253" r="1" fill="#666666"/>
<circle cx="271" cy="127" r="1" fill="#666666"/>
<circle cx="271" cy="307" r="1" fill="#666666"/>
<circle cx="271" cy="271" r="1" fill="#666666"/>
<circle cx="19" cy="73" r="1" fill="#666666"/>
<circle cx="19" cy="217" r="1" fill="#666666"/>
<circle cx="19" cy="91" r="1" fill="#666666"/>
<circle cx="19" cy="235" r="1" fill="#666666"/>
<circle cx="19" cy="109" r="1" fill="#666666"/>
<circle cx="19" cy="289" r="1" fill="#666666"/>
<circle cx="19" cy="253" r="1" fill="#666666"/>
<circle cx="19" cy="127" r="1" fill="#666666"/>
<circle cx="19" cy="307" r="1" fill="#666666"/>
<circle cx="19" cy="271" r="1" fill="#666666"/>
<circle cx="289" cy="73" r="1" fill="#666666"/>
<circle cx="289" cy="217" r="1" fill="#666666"/>
<circle cx="289" cy="91" r="1" fill="#666666"/>
<circle cx="289" cy="235" r="1" fill="#666666"/>
<circle cx="289" cy="109" r="1" fill="#666666"/>
<circle cx="289" cy="289" r="1" fill="#666666"/>
<circle cx="289" cy="253" r="1" fill="#666666"/>
<circle cx="289" cy="127" r="1" fill="#666666"/>
<circle cx="289" cy="307" r="1" fill="#666666"/>
<circle cx="289" cy="271" r="1" fill="#666666"/>
<circle cx="163" cy="73" r="1" fill="#666666"/>
<circle cx="163" cy="217" r="1" fill="#666666"/>
<circle cx="163" cy="91" r="1" fill="#666666"/>
<circle cx="163" cy="235" r="1" fill="#666666"/>
<circle cx="163" cy="109" r="1" fill="#666666"/>
<circle cx="163" cy="289" r="1" fill="#666666"/>
<circle cx="163" cy="253" r="1" fill="#666666"/>
<circle cx="163" cy="127" r="1" fill="#666666"/>
<circle cx="163" cy="307" r="1" fill="#666666"/>
<circle cx="163" cy="271" r="1" fill="#666666"/>
<circle cx="307" cy="73" r="1" fill="#666666"/>
<circle cx="307" cy="217" r="1" fill="#666666"/>
<circle cx="307" cy="91" r="1" fill="#666666"/>
<circle cx="307" cy="235" r="1" fill="#666666"/>
<circle cx="307" cy="109" r="1" fill="#666666"/>
<circle cx="307" cy="289" r="1" fill="#666666"/>
<circle cx="307" cy="253" r="1" fill="#666666"/>
<circle cx="307" cy="127" r="1" fill="#666666"/>
<circle cx="307" cy="307" r="1" fill="#666666"/>
<circle cx="307" cy="271" r="1" fill="#666666"/>
<circle cx="37" cy="73" r="1" fill="#666666"/>
<circle cx="37" cy="217" r="1" fill="#666666"/>
<circle cx="37" cy="91" r="1" fill="#666666"/>
<circle cx="37" cy="235" r="1" fill="#666666"/>
<circle cx="37" cy="109" r="1" fill="#666666"/>
<circle cx="37" cy="289" r="1" fill="#666666"/>
<circle cx="37" cy="253" r="1" fill="#666666"/>
<circle cx="37" cy="127" r="1" fill="#666666"/>
<circle cx="37" cy="307" r="1" fill="#666666"/>
<circle cx="37" cy="271" r="1" fill="#666666"/>
<circle cx="325" cy="73" r="1" fill="#666666"/>
<circle cx="325" cy="217" r="1" fill="#666666"/>
<circle cx="325" cy="91" r="1" fill="#666666"/>
<circle cx="325" cy="235" r="1" fill="#666666"/>
<circle cx="325" cy="109" r="1" fill="#666666"/>
<circle cx="325" cy="289" r="1" fill="#666666"/>
<circle cx="325" cy="253" r="1" fill="#666666"/>
<circle cx="325" cy="127" r="1" fill="#666666"/>
<circle cx="325" cy="307" r="1" fill="#666666"/>
<circle cx="325" cy="271" r="1" fill="#666666"/>
<circle cx="181" cy="73" r="1" fill="#666666"/>
<circle cx="181" cy="217" r="1" fill="#666666"/>
<circle cx="181" cy="91" r="1" fill="#666666"/>
<circle cx="181" cy="235" r="1" fill="#666666"/>
<circle cx="181" cy="109" r="1" fill="#666666"/>
<circle cx="181" cy="289" r="1" fill="#666666"/>
<circle cx="181" cy="253" r="1" fill="#666666"/>
<circle cx="181" cy="127" r="1" fill="#666666"/>
<circle cx="181" cy="307" r="1" fill="#666666"/>
<circle cx="181" cy="271" r="1" fill="#666666"/>
<circle cx="343" cy="73" r="1" fill="#666666"/>
<circle cx="343" cy="217" r="1" fill="#666666"/>
<circle cx="343" cy="91" r="1" fill="#666666"/>
<circle cx="343" cy="235" r="1" fill="#666666"/>
<circle cx="343" cy="109" r="1" fill="#666666"/>
<circle cx="343" cy="289" r="1" fill="#666666"/>
<circle cx="343" cy="253" r="1" fill="#666666"/>
<circle cx="343" cy="127" r="1" fill="#666666"/>
<circle cx="343" cy="307" r="1" fill="#666666"/>
<circle cx="343" cy="271" r="1" fill="#666666"/>
<circle cx="55" cy="73" r="1" fill="#666666"/>
<circle cx="55" cy="217" r="1" fill="#666666"/>
<circle cx="55" cy="91" r="1" fill="#666666"/>
<circle cx="55" cy="235" r="1" fill="#666666"/>
<circle cx="55" cy="109" r="1" fill="#666666"/>
<circle cx="55" cy="289" r="1" fill="#666666"/>
<circle cx="55" cy="253" r="1" fill="#666666"/>
<circle cx="55" cy="127" r="1" fill="#666666"/>
<circle cx="55" cy="307" r="1" fill="#666666"/>
<circle cx="55" cy="271" r="1" fill="#666666"/>
<circle cx="361" cy="73" r="1" fill="#666666"/>
<circle cx="361" cy="217" r="1" fill="#666666"/>
<circle cx="361" cy="91" r="1" fill="#666666"/>
<circle cx="361" cy="235" r="1" fill="#666666"/>
<circle cx="361" cy="109" r="1" fill="#666666"/>
<circle cx="361" cy="289" r="1" fill="#666666"/>
<circle cx="361" cy="253" r="1" fill="#666666"/>
<circle cx="361" cy="127" r="1" fill="#666666"/>
<circle cx="361" cy="307" r="1" fill="#666666"/>
<circle cx="361" cy="271" r="1" fill="#666666"/>
<circle cx="253" cy="73" r="1" fill="#666666"/>
<circle cx="253" cy="217" r="1" fill="#666666"/>
<circle cx="253" cy="91" r="1" fill="#666666"/>
<circle cx="253" cy="235" r="1" fill="#666666"/>
<circle cx="253" cy="109" r="1" fill="#666666"/>
<circle cx="253" cy="289" r="1" fill="#666666"/>
<circle cx="253" cy="253" r="1" fill="#666666"/>
<circle cx="253" cy="127" r="1" fill="#666666"/>
<circle cx="253" cy="307" r="1" fill="#666666"/>
<circle cx="253" cy="271" r="1" fill="#666666"/>
<circle cx="379" cy="73" r="1" fill="#666666"/>
<circle cx="379" cy="217" r="1" fill="#666666"/>
<circle cx="379" cy="91" r="1" fill="#666666"/>
<circle cx="379" cy="235" r="1" fill="#666666"/>
<circle cx="379" cy="109" r="1" fill="#666666"/>
<circle cx="379" cy="289" r="1" fill="#666666"/>
<circle cx="379" cy="253" r="1" fill="#666666"/>
<circle cx="379" cy="127" r="1" fill="#666666"/>
<circle cx="379" cy="307" r="1" fill="#666666"/>
<circle cx="379" cy="271" r="1" fill="#666666"/>
<circle cx="199" cy="73" r="1" fill="#666666"/>
<circle cx="199" cy="217" r="1" fill="#666666"/>
<circle cx="199" cy="91" r="1" fill="#666666"/>
<circle cx="199" cy="235" r="1" fill="#666666"/>
<circle cx="199" cy="109" r="1" fill="#666666"/>
<circle cx="199" cy="289" r="1" fill="#666666"/>
<circle cx="199" cy="253" r="1" fill="#666666"/>
<circle cx="199" cy="127" r="1" fill="#666666"/>
<circle cx="199" cy="307" r="1" fill="#666666"/>
<circle cx="199" cy="271" r="1" fill="#666666"/>
<circle cx="73" cy="73" r="1" fill="#666666"/>
<circle cx="73" cy="217" r="1" fill="#666666"/>
<circle cx="73" cy="91" r="1" fill="#666666"/>
<circle cx="73" cy="235" r="1" fill="#666666"/>
<circle cx="73" cy="109" r="1" fill="#666666"/>
<circle cx="73" cy="289" r="1" fill="#666666"/>
<circle cx="73" cy="253" r="1" fill="#666666"/>
<circle cx="73" cy="127" r="1" fill="#666666"/>
<circle cx="73" cy="307" r="1" fill="#666666"/>
<circle cx="73" cy="271" r="1" fill="#666666"/>
<circle cx="217" cy="73" r="1" fill="#666666"/>
<circle cx="217" cy="217" r="1" fill="#666666"/>
<circle cx="217" cy="91" r="1" fill="#666666"/>
<circle cx="217" cy="235" r="1" fill="#666666"/>
<circle cx="217" cy="109" r="1" fill="#666666"/>
<circle cx="217" cy="289" r="1" fill="#666666"/>
<circle cx="217" cy="253" r="1" fill="#666666"/>
<circle cx="217" cy="127" r="1" fill="#666666"/>
<circle cx="217" cy="307" r="1" fill="#666666"/>
<circle cx="217" cy="271" r="1" fill="#666666"/>
<circle cx="91" cy="73" r="1" fill="#666666"/>
<circle cx="91" cy="217" r="1" fill="#666666"/>
<circle cx="91" cy="91" r="1" fill="#666666"/>
<circle cx="91" cy="235" r="1" fill="#666666"/>
<circle cx="91" cy="109" r="1" fill="#666666"/>
<circle cx="91" cy="289" r="1" fill="#666666"/>
<circle cx="91" cy="253" r="1" fill="#666666"/>
<circle cx="91" cy="127" r="1" fill="#666666"/>
<circle cx="91" cy="307" r="1" fill="#666666"/>
<circle cx="91" cy="271" r="1" fill="#666666"/>
<circle cx="235" cy="73" r="1" fill="#666666"/>
<circle cx="235" cy="217" r="1" fill="#666666"/>
<circle cx="235" cy="91" r="1" fill="#666666"/>
<circle cx="235" cy="235" r="1" fill="#666666"/>
<circle cx="235" cy="109" r="1" fill="#666666"/>
<circle cx="235" cy="289" r="1" fill="#666666"/>
<circle cx="235" cy="253" r="1" fill="#666666"/>
<circle cx="235" cy="127" r="1" fill="#666666"/>
<circle cx="235" cy="307" r="1" fill="#666666"/>
<circle cx="235" cy="271" r="1" fill="#666666"/>
<circle cx="109" cy="73" r="1" fill="#666666"/>
<circle cx="109" cy="217" r="1" fill="#666666"/>
<circle cx="109" cy="91" r="1" fill="#666666"/>
<circle cx="109" cy="235" r="1" fill="#666666"/>
<circle cx="109" cy="109" r="1" fill="#666666"/>
<circle cx="109" cy="289" r="1" fill="#666666"/>
<circle cx="109" cy="253" r="1" fill="#666666"/>
<circle cx="109" cy="127" r="1" fill="#666666"/>
<circle cx="109" cy="307" r="1" fill="#666666"/>
<circle cx="109" cy="271" r="1" fill="#666666"/>
<circle cx="1" cy="73" r="1" fill="#666666"/>
<circle cx="1" cy="217" r="1" fill="#666666"/>
<circle cx="1" cy="91" r="1" fill="#666666"/>
<circle cx="1" cy="235" r="1" fill="#666666"/>
<circle cx="1" cy="109" r="1" fill="#666666"/>
<circle cx="1" cy="289" r="1" fill="#666666"/>
<circle cx="1" cy="253" r="1" fill="#666666"/>
<circle cx="1" cy="127" r="1" fill="#666666"/>
<circle cx="1" cy="307" r="1" fill="#666666"/>
<circle cx="1" cy="271" r="1" fill="#666666"/>
<circle cx="127" cy="73" r="1" fill="#666666"/>
<circle cx="127" cy="217" r="1" fill="#666666"/>
<circle cx="127" cy="91" r="1" fill="#666666"/>
<circle cx="127" cy="235" r="1" fill="#666666"/>
<circle cx="127" cy="109" r="1" fill="#666666"/>
<circle cx="127" cy="289" r="1" fill="#666666"/>
<circle cx="127" cy="253" r="1" fill="#666666"/>
<circle cx="127" cy="127" r="1" fill="#666666"/>
<circle cx="127" cy="307" r="1" fill="#666666"/>
<circle cx="127" cy="271" r="1" fill="#666666"/>
<path d="M444.244 324H32.8352C-3.96427 324 18.3612 280.189 36.4866 253.928C71.4821 203.226 8.85819 173.698 24.3625 133.154C44.2407 81.1723 101.168 72.4935 128.501 97.0685C149.624 116.06 189.356 118.143 222.729 102.391C266.522 81.7205 283 52.5 334 61.4999C403.108 73.6953 357.83 157.686 386.163 163.918C435.496 174.768 460.022 290.4 444.244 324Z" fill="#FEF2C7"/>
<circle cx="97.7615" cy="313.71" r="2.58379" fill="#010101"/>
<circle cx="104.221" cy="313.71" r="2.58379" fill="#010101"/>
<circle cx="133.934" cy="313.71" r="2.58379" fill="#010101"/>
<circle cx="140.394" cy="313.71" r="2.58379" fill="#010101"/>
<path d="M117.786 300.792L115.848 298.208L96.4697 305.313V311.127H99.0535V306.605L106.159 304.022L107.451 304.667L102.929 307.897V311.127H105.513V308.543L117.786 300.792Z" fill="#643E0D" stroke="#643E0D" stroke-width="0.516548"/>
<path d="M121.016 300.792L122.895 298.208L141.687 305.313V311.127H139.181V306.605L132.291 304.022L131.038 304.667L135.227 307.897V311.127H132.643V308.543L121.016 300.792Z" fill="#643E0D" stroke="#643E0D" stroke-width="0.516548"/>
<path d="M115.848 298.854C115.848 298.208 117.067 296.916 119.723 296.916C122.38 296.916 123.599 298.208 123.599 298.854C123.599 299.5 122.46 300.791 119.723 300.791C116.987 300.791 115.848 299.5 115.848 298.854Z" fill="#030303" stroke="#030303" stroke-width="0.516548"/>
<path d="M121.662 284.643H117.786V296.916H121.662V284.643Z" fill="#643E0D" stroke="#643E0D" stroke-width="0.516548"/>
<path d="M119.725 285.287C118.432 285.284 117.14 283.997 117.14 283.997L122.307 284.02C122.307 284.02 121.015 285.289 119.725 285.287Z" fill="#000103" stroke="#000103" stroke-width="0.516548"/>
<path d="M147.501 251.054C145.95 255.705 140.395 256.437 137.812 256.222V253.638C142.979 253.638 144.271 251.915 144.271 251.054H147.501Z" fill="#875B12" stroke="#875B12" stroke-width="0.516548"/>
<path d="M148.792 244.444C146.208 242.377 143.84 243.583 142.979 244.444V250.257C145.046 252.324 147.715 251.119 148.792 250.257V244.444Z" fill="#B2B0B1" stroke="#B2B0B1" stroke-width="0.516548"/>
<path d="M95.8252 216.173L97.1171 221.986L102.931 225.862H135.632L137.812 212.943H95.8252V216.173Z" fill="#D1D1D1" stroke="#D1D1D1" stroke-width="0.516548"/>
<path d="M102.931 238.781V228.446H135.228V238.781H102.931Z" fill="#D1D1D1" stroke="#D1D1D1" stroke-width="0.516548"/>
<path d="M102.931 251.7V240.719H135.228V251.7H102.931Z" fill="#D1D1D1" stroke="#D1D1D1" stroke-width="0.516548"/>
<path d="M97.7627 263.973V253.638H135.228V263.973H97.7627Z" fill="#D1D1D1" stroke="#D1D1D1" stroke-width="0.516548"/>
<path d="M95.1786 216.173L96.4705 221.986H93.8867V210.359H139.749V219.403L137.811 240.073V262.035H135.873V253.638H103.331V252.138L135.873 252.346V240.719H103.331V239.427H135.873V227.8H103.331V226.508H135.873L138.457 212.297H95.1786V216.173Z" fill="#643E0D" stroke="#643E0D" stroke-width="0.516548"/>
<path d="M95.8252 262.035V256.868H97.763V262.035H95.8252Z" fill="#643E0D" stroke="#643E0D" stroke-width="0.516548"/>
<path d="M61.5889 254.284V221.986H110.681V254.284H61.5889Z" fill="#706E6F" stroke="#706E6F" stroke-width="0.516548"/>
<path d="M61.5889 256.867V254.929H110.681V256.867H61.5889Z" fill="#C7C5C6" stroke="#C7C5C6" stroke-width="0.516548"/>
<path d="M81.6126 261.389V257.513H90.6559V261.389L92.5937 262.035H79.6748L81.6126 261.389Z" fill="#DADADA" stroke="#DADADA" stroke-width="0.516548"/>
<path d="M66.7561 324.047H63.5264V284.644H66.7561V324.047Z" fill="#8F5515" stroke="#8F5515" stroke-width="0.516548"/>
<path d="M172.045 323.401V284.644H175.275V323.401H172.045Z" fill="#8F5515" stroke="#8F5515" stroke-width="0.516548"/>
<path d="M63.5272 283.998V265.911H175.275V283.998H63.5272Z" fill="#71331E"/>
<path d="M63.5272 265.911V283.998H175.275V265.911H63.2031" stroke="#71331E" stroke-width="0.516548"/>
<path d="M61.5889 265.265V262.035H177.859V265.265H61.5889Z" fill="#8F5515" stroke="#8F5515" stroke-width="0.516548"/>
<path d="M390.723 308.339V299.902V298.57C387.439 300.494 380.873 303.899 380.873 302.122C380.873 297.859 387.439 297.978 390.723 298.57V294.129C390.152 293.981 388.924 293.596 388.581 293.241C388.153 292.797 377.447 299.458 377.447 295.017C377.447 291.465 384.87 292.057 388.581 292.797L390.723 294.129V287.468L388.581 285.248C385.155 287.468 377.361 290.932 373.592 287.024C373.25 281.695 383.442 283.027 388.581 284.36L390.723 286.58V285.692L389.01 280.807C384.156 277.698 375.048 270.86 377.447 268.373C379.845 265.886 386.44 275.33 389.438 280.363L390.723 285.692V266.153C388.153 263.34 383.785 256.916 386.868 253.719C388.239 252.298 388.581 253.126 388.581 253.719C389.295 250.018 391.065 243.327 392.436 246.169C396.547 245.459 395.862 252.386 395.005 255.939C396.576 254.311 399.716 253.008 399.716 260.824C399.716 264.021 394.292 265.709 391.579 266.153L391.771 285.029L393.292 283.027C396.075 278.807 403.054 271.834 408.71 277.698C411.108 282.672 399.716 283.915 393.721 283.915L391.778 285.692L391.85 292.797L394.577 291.465C398.289 290.577 405.712 290.132 405.712 295.461C405.712 300.79 398.289 295.609 394.577 292.353L391.854 293.241L392.008 308.339H390.723Z" fill="#4B773C"/>
<path d="M393.189 279.72L392.333 282.829L392.761 279.276C391.904 274.688 393.018 266.576 404.324 270.839C404.324 277.944 396.901 279.72 393.189 279.72Z" fill="#67A153"/>
<path d="M389.335 273.948L391.048 276.612L389.763 273.948C388.05 265.954 382.74 252.277 375.202 261.514C375.202 267.553 384.624 272.319 389.335 273.948Z" fill="#67A153"/>
<path d="M393.617 269.063L391.904 273.059L394.046 269.507C399.327 267.583 409.292 263.112 406.893 260.625C404.495 258.139 397.043 265.214 393.617 269.063Z" fill="#67A153"/>
<path d="M385.669 323.754C384.641 322.689 383.242 312.949 382.671 308.212H400.23C400.23 310.699 398.516 319.61 397.66 323.754H385.669Z" fill="#D9AC02"/>
<path d="M392.093 295.778C395.376 296.074 401.001 297.643 397.232 301.551C393.463 305.459 392.236 299.33 392.093 295.778Z" fill="#51830D"/>
<path d="M390.808 289.561C386.954 287.933 379.245 287.518 379.245 298.886C379.245 300.663 386.954 293.409 390.808 289.561Z" fill="#51830D"/>
<path d="M345.943 149.609H265.883V322.967H345.943V149.609Z" fill="#493333" stroke="#493333" stroke-width="0.516548"/>
<path d="M277.32 151.896L343.084 150.181V173.627L342.512 174.199V177.63L344.228 178.774V182.205L343.084 182.777V292.002L342.512 292.573V297.148L344.228 297.72V300.579H343.084V322.882L277.32 320.594V151.896Z" fill="#D9B79C"/>
<path d="M343.656 174.199H344.228V177.63L343.656 177.058V174.199Z" fill="#D9B79C"/>
<path d="M277.32 151.896L343.084 150.181V173.627L342.512 174.199V177.63L344.228 178.774V182.205L343.084 182.777V292.002L342.512 292.573V297.148L344.228 297.72V300.579H343.084V322.882L277.32 320.594V151.896Z" stroke="#D9B79C" stroke-width="0.516548"/>
<path d="M343.656 174.199H344.228V177.63L343.656 177.058V174.199Z" stroke="#D9B79C" stroke-width="0.516548"/>
<path d="M343.655 293.146L344.227 292.574V296.577L343.655 296.005V293.146Z" stroke="#D9B79C" stroke-width="0.516548"/>
<path d="M257.877 142.175V322.882H266.455V150.753H344.228V322.882H351.09V142.175H257.877Z" fill="#D9B79C" stroke="#D9B79C" stroke-width="0.516548"/>
<path d="M279.607 229.098H283.61V236.913L291.616 237.676C292.188 238.247 292.875 239.734 291.045 241.107L283.61 239.992V248.541H279.607V239.391V236.532V229.098Z" fill="#EBAF4E"/>
<path d="M279.607 236.532V229.098C280.065 229.098 282.467 229.098 283.61 229.098V248.541H279.607V239.391M279.607 236.532L291.616 237.676C292.188 238.247 292.875 239.734 291.045 241.107L279.607 239.391M279.607 236.532V239.391" stroke="#EBAF4E" stroke-width="0.516548"/>
<path d="M280.752 242.822V245.11H281.896V242.822H280.752Z" fill="#B2721C" stroke="#B2721C" stroke-width="0.516548"/>
<path d="M283.61 228.813V248.541" stroke="#B2721C" stroke-width="0.516548"/>
<path d="M162.895 183.636C162.895 184.484 162.792 185.376 163.005 186.196C163.105 186.582 163.202 186.785 163.488 186.323C163.715 185.955 164.194 185.863 164.42 185.467" stroke="#51830D" stroke-width="3.09929" stroke-linecap="round"/>
<path d="M168.21 183.693C168.026 184.367 167.723 184.932 167.243 185.452C167.153 185.55 165.877 186.86 165.714 186.222C165.648 185.965 165.837 185.39 165.917 185.2C166.048 184.889 166.303 184.457 166.558 184.217C166.638 184.14 166.96 183.91 167.127 184.022C167.335 184.163 167.251 184.657 167.217 184.786C167.126 185.133 166.868 185.705 166.541 185.918C166.203 186.138 165.951 185.915 165.872 185.585C165.803 185.297 165.888 184.79 166.118 184.566C166.332 184.356 166.559 184.552 166.626 184.76C166.88 185.557 166.131 186.361 165.487 186.684C165.241 186.808 164.744 186.963 164.455 186.788C164.206 186.636 164.212 186.245 164.294 186.024C164.486 185.507 165.274 185.085 165.743 185.546C166.267 186.062 165.457 186.859 165.063 187.108C164.818 187.263 164.373 187.441 164.061 187.396C163.823 187.361 163.664 187.167 163.741 186.923C163.932 186.315 164.781 186.105 165.283 186.425C165.472 186.546 165.696 186.847 165.668 187.095C165.635 187.393 165.323 187.604 165.083 187.703C164.77 187.832 164.273 187.886 163.938 187.861C163.817 187.853 163.381 187.783 163.278 187.616C163.18 187.456 163.479 187.294 163.537 187.27C163.808 187.154 164.227 187.106 164.51 187.117C164.849 187.131 165.263 187.223 165.574 187.363C165.746 187.441 166.256 187.709 166.098 188.002C165.893 188.384 165.133 188.409 164.769 188.403C164.694 188.402 164.119 188.358 164.421 188.148C164.736 187.928 165.227 187.968 165.565 188.104C166.136 188.334 165.348 188.553 165.159 188.584C164.546 188.684 163.714 188.68 163.215 188.245C163 188.057 163.004 187.712 163.349 187.732C163.569 187.745 163.86 187.903 163.962 188.107C164.023 188.229 163.887 188.369 163.82 188.456C163.71 188.599 163.666 188.597 163.752 188.778C163.886 189.062 164.189 189.151 164.42 189.336C164.568 189.455 164.681 189.538 164.827 189.391C164.847 189.371 164.924 189.338 164.895 189.339C164.66 189.351 164.437 189.392 164.2 189.375C164 189.361 163.814 189.385 163.621 189.317C163.337 189.216 163.05 189.17 162.751 189.165C162.612 189.162 162.477 189.131 162.34 189.113C162.208 189.096 162.071 189.122 161.939 189.105C161.562 189.055 161.203 188.932 160.82 188.932C160.712 188.932 160.662 189.006 160.586 189.063C160.521 189.112 160.439 189.187 160.374 189.246C160.308 189.305 160.379 189.148 160.38 189.142C160.425 188.883 160.364 188.84 160.261 188.625C160.206 188.509 160.231 188.336 160.235 188.211C160.237 188.164 160.307 188.102 160.322 188.046C160.355 187.925 160.364 187.718 160.452 187.622C160.514 187.554 160.584 187.496 160.642 187.425C160.805 187.226 160.821 186.918 160.904 186.676C160.936 186.584 160.983 186.496 160.99 186.398C160.998 186.281 160.982 186.177 161.021 186.065C161.106 185.817 161.145 185.544 161.136 185.282C161.126 184.995 161.108 184.712 161.108 184.424C161.108 184.129 160.971 183.864 160.963 183.579C160.955 183.33 160.882 183.082 160.875 182.836C160.871 182.668 160.913 182.624 161.021 182.528C161.098 182.46 161.292 182.487 161.335 182.58C161.375 182.668 161.543 182.688 161.616 182.774C161.689 182.861 161.761 182.952 161.82 183.049C161.86 183.116 161.89 183.246 161.96 183.288C162.245 183.459 162.454 183.589 162.793 183.662C163.529 183.819 164.246 184.03 165.002 184.079C165.591 184.117 166.19 184.162 166.739 183.917C166.839 183.873 166.944 183.854 166.858 183.741C166.761 183.613 166.635 183.514 166.495 183.437C166.327 183.345 166.175 183.314 165.988 183.314C165.933 183.314 165.844 183.217 165.806 183.235C165.718 183.276 165.571 183.592 165.765 183.44C165.981 183.272 166.11 182.904 166.244 182.667C166.357 182.467 166.491 182.294 166.632 182.114C166.707 182.019 166.765 181.888 166.9 181.888C167.208 181.888 167.444 181.783 167.732 181.697C168.001 181.617 168.343 181.655 168.624 181.655C168.726 181.655 168.873 181.682 168.967 181.636C169.179 181.532 169.287 181.439 169.531 181.421C169.65 181.412 169.715 181.306 169.842 181.306C169.991 181.306 170.139 181.306 170.288 181.306C170.397 181.306 170.493 181.304 170.595 181.262C170.692 181.223 170.737 181.119 170.835 181.073C170.957 181.016 171.176 180.898 171.312 180.898C171.399 180.898 171.578 180.837 171.587 180.73C171.594 180.644 171.71 180.618 171.768 180.578C171.781 180.569 171.89 180.461 171.894 180.51C171.902 180.61 171.823 180.709 171.819 180.811C171.808 181.111 171.653 181.358 171.574 181.639C171.496 181.916 171.211 182.139 171.211 182.447C171.211 182.495 171.292 182.396 171.328 182.365C171.401 182.302 171.471 182.236 171.54 182.168C171.598 182.11 171.648 182.046 171.688 181.974C171.7 181.954 171.738 181.876 171.708 181.969C171.656 182.13 171.588 182.294 171.501 182.439C171.418 182.577 171.284 182.602 171.221 182.748C171.093 183.048 170.828 183.375 170.595 183.607C170.467 183.735 170.29 183.848 170.191 184.001C170.079 184.176 170.02 184.401 169.992 184.605C169.953 184.895 169.947 185.121 169.827 185.394C169.747 185.577 169.724 185.759 169.724 185.956C169.724 186.165 169.701 186.209 169.928 186.196C169.977 186.193 169.992 186.148 169.944 186.251C169.883 186.38 169.856 186.482 169.737 186.558C169.536 186.686 169.196 186.661 168.975 186.691C168.784 186.716 168.712 187.077 168.671 187.232C168.609 187.47 168.372 187.514 168.201 187.662C168.138 187.717 168.166 187.772 168.149 187.844C168.117 187.979 168.096 188.063 168.094 188.207C168.092 188.34 168.023 188.479 167.984 188.605C167.944 188.735 168.049 188.78 168.1 188.874C168.147 188.958 168.427 189.046 168.437 189.136C168.447 189.227 167.421 189.136 167.28 189.121C167.145 189.107 167.012 189.106 166.876 189.106C166.741 189.106 166.631 189.04 166.503 189.005C165.98 188.86 165.454 188.733 164.941 188.557C164.357 188.356 163.777 188.202 163.163 188.122C162.992 188.099 162.833 188.12 162.662 188.068C162.49 188.016 162.295 187.968 162.208 187.8C162.128 187.645 162.045 187.492 161.977 187.331C161.948 187.264 161.894 187.054 161.894 187.127" stroke="#51830D" stroke-width="3.09929" stroke-linecap="round"/>
<path d="M170.422 178.599C170.237 179.142 169.743 179.645 169.305 180.019C169.225 180.087 168.757 180.501 168.925 180.142C169.02 179.938 169.163 179.812 169.374 179.741C169.673 179.64 169.913 179.537 170.141 179.309C170.203 179.247 170.291 179.167 170.306 179.074C170.315 179.018 170.319 178.963 170.354 178.916C170.576 178.621 170.636 178.239 170.807 177.917C170.818 177.895 170.958 177.643 170.969 177.81C170.988 178.111 170.929 178.495 170.82 178.775C170.793 178.845 170.759 178.633 170.767 178.559C170.792 178.295 170.9 178.04 171.02 177.807C171.045 177.76 171.118 177.602 171.202 177.664C171.218 177.676 171.294 177.824 171.26 177.833C171.212 177.845 171.17 176.932 171.24 176.785C171.293 176.676 171.342 176.56 171.365 176.44C171.388 176.316 171.387 175.933 171.383 176.06C171.374 176.337 171.374 176.615 171.354 176.891C171.347 176.983 171.223 177.93 170.935 177.731C170.745 177.599 170.853 177.087 170.883 176.914C170.962 176.452 171.172 176.055 171.389 175.646C171.579 175.288 171.734 174.925 171.887 174.55C171.891 174.542 172.146 174.07 172.107 174.335C172.063 174.634 171.962 174.932 171.887 175.224C171.815 175.505 171.731 175.315 171.713 175.119C171.677 174.745 171.768 174.343 171.923 174.003C172.01 173.811 172.244 173.477 172.497 173.491C172.728 173.504 172.351 174.013 172.33 174.042C172.198 174.227 171.988 174.542 171.74 174.589C171.311 174.669 171.51 173.721 171.661 173.547C171.707 173.495 171.771 173.507 171.793 173.576C171.874 173.827 171.82 174.176 171.771 174.427C171.732 174.627 171.666 174.817 171.552 174.987C171.49 175.08 171.319 175.354 171.169 175.313C170.944 175.252 171.09 174.634 171.134 174.514C171.183 174.38 171.267 174.265 171.318 174.133C171.367 174.006 171.389 173.867 171.428 173.737C171.498 173.502 171.583 173.245 171.703 173.03C171.829 172.803 172.076 172.858 172.306 172.867C172.457 172.872 172.607 172.889 172.738 172.965C172.947 173.087 172.98 173.234 172.984 173.476C172.99 173.944 172.872 174.372 172.566 174.731C172.266 175.083 172.08 175.483 171.871 175.892C171.786 176.058 171.636 176.179 171.557 176.348C171.48 176.515 171.384 176.664 171.295 176.823" stroke="#51830D" stroke-width="1.0331" stroke-linecap="round"/>
<path d="M170.188 180.084C170.33 179.827 170.513 179.549 170.693 179.317C170.752 179.241 170.899 179.004 170.881 179.099C170.847 179.276 170.771 179.448 170.712 179.618" stroke="#51830D" stroke-width="1.0331" stroke-linecap="round"/>
<path d="M166.463 180.316C166.456 179.623 166.414 178.93 166.424 178.237C166.426 178.104 166.449 177.713 166.482 177.842C166.566 178.164 166.491 178.577 166.443 178.892C166.328 179.646 166.104 180.377 165.918 181.115C165.901 181.184 165.885 181.384 165.858 181.319C165.817 181.22 165.849 180.923 165.847 180.845C165.834 180.429 165.814 180.008 165.719 179.601C165.678 179.425 165.72 179.939 165.716 179.983C165.69 180.258 165.605 180.527 165.59 180.801C165.581 180.953 165.562 180.916 165.58 180.75C165.668 179.947 165.665 179.174 165.635 178.369C165.613 177.772 165.684 177.19 165.734 176.599C165.761 176.265 165.785 175.929 165.729 175.598C165.676 175.292 165.648 174.993 165.648 174.682C165.648 174.425 165.628 173.977 165.856 173.806C166.073 173.643 166.382 173.554 166.56 173.837C166.661 173.998 166.709 174.199 166.77 174.378C166.852 174.618 166.987 174.825 167.093 175.054C167.342 175.59 167.366 176.169 167.307 176.752C167.27 177.12 167.19 177.481 167.16 177.85C167.14 178.095 167.084 178.334 167.061 178.578C167.04 178.8 167.059 179.023 167.013 179.242C166.941 179.578 166.875 179.897 166.971 180.242C167.047 180.515 167.092 180.797 167.161 181.073" stroke="#51830D" stroke-width="1.0331" stroke-linecap="round"/>
<path d="M167.366 164.308C167.366 163.671 167.382 163.073 167.492 162.446C167.572 161.984 167.691 161.537 167.747 161.072C167.774 160.854 168.005 160.737 168.211 160.779C168.402 160.818 168.545 160.962 168.641 161.124C168.725 161.264 168.739 161.433 168.822 161.568C169.367 162.454 169.725 163.556 169.156 164.511C168.996 164.78 168.778 164.907 168.593 164.579C168.385 164.211 168.339 163.776 168.329 163.362C168.322 163.017 168.284 162.64 168.355 162.299C168.39 162.133 168.409 162.082 168.517 162.28C168.785 162.771 168.631 163.368 168.682 163.9C168.705 164.15 168.739 164.39 168.734 164.644C168.722 165.206 168.501 165.665 168.271 166.167C168.167 166.395 168.086 166.622 168.029 166.866C168.009 166.95 168 167.14 167.948 167.222C167.901 167.295 167.897 167.054 167.883 166.968C167.833 166.654 167.784 166.341 167.728 166.028C167.635 165.519 167.527 165.036 167.592 164.518C167.61 164.372 167.761 164.472 167.841 164.528C168.064 164.681 168.061 165.152 168.08 165.385C168.106 165.689 168.132 165.993 167.999 166.277C167.946 166.392 167.869 166.487 167.825 166.607C167.712 166.913 167.639 167.238 167.553 167.551C167.459 167.894 167.364 168.235 167.26 168.575C167.237 168.652 167.203 168.834 167.149 168.913C167.098 168.987 167.045 168.417 167.045 168.389C167.045 168.309 167.163 167.651 167.026 167.61C166.613 167.484 166.616 168.324 166.61 168.53C166.605 168.716 166.584 168.924 166.614 169.109C166.657 169.379 166.739 169.636 166.751 169.912C166.78 170.572 166.615 171.19 166.496 171.832C166.432 172.173 166.411 172.531 166.395 172.878C166.388 173.038 166.413 173.278 166.492 173.42C166.567 173.553 166.676 173.314 166.694 173.269C166.837 172.912 166.888 172.493 166.955 172.116C167.058 171.537 167.183 170.931 167.414 170.386C167.675 169.77 167.94 169.169 168.163 168.536C168.324 168.079 168.306 167.614 168.384 167.141C168.425 166.896 168.472 166.658 168.53 166.416C168.579 166.212 168.593 165.921 168.75 165.76C168.852 165.655 168.919 165.911 168.931 165.96C169.006 166.264 169.013 166.556 168.882 166.843C168.758 167.117 168.592 167.37 168.465 167.642C168.306 167.983 168.192 168.347 168.093 168.709C167.889 169.455 168.039 170.23 167.702 170.941C167.419 171.537 167.161 172.175 167.039 172.826C166.966 173.214 166.884 173.58 166.463 173.703C166.24 173.768 166.202 173.612 166.02 173.557C165.962 173.54 165.861 173.555 165.816 173.515C165.769 173.473 165.765 173.397 165.765 173.505" stroke="#51830D" stroke-width="1.0331" stroke-linecap="round"/>
<path d="M161.223 166.316C160.975 165.864 160.87 165.347 160.627 164.89C160.417 164.495 160.145 164.158 159.85 163.826C159.825 163.797 159.66 163.549 159.58 163.57C159.3 163.645 159.143 163.605 159.002 163.331C158.847 163.032 158.825 162.682 158.743 162.361C158.712 162.241 158.615 162.104 158.798 162.076C159.05 162.037 159.235 162.526 159.359 162.686C159.447 162.799 159.571 162.989 159.707 163.049C159.892 163.132 160.102 163.222 160.256 163.36C160.428 163.513 160.521 163.78 160.583 163.994C160.733 164.513 160.674 165.023 160.674 165.556C160.674 165.958 160.752 166.355 160.758 166.759C160.764 167.208 160.761 167.703 160.842 168.146C160.929 168.627 161.007 169.101 161.062 169.587C161.084 169.783 161.113 169.977 161.134 170.172C161.137 170.195 161.15 170.257 161.157 170.236C161.181 170.164 161.221 169.913 161.227 169.883C161.274 169.605 161.318 169.327 161.362 169.049C161.4 168.81 161.472 168.548 161.446 168.305C161.409 167.942 161.18 167.629 161.1 167.276C161.089 167.227 161.108 167.014 161.154 167.15C161.361 167.771 161.376 168.502 161.395 169.149C161.409 169.644 161.506 170.127 161.524 170.62C161.546 171.202 161.475 171.742 161.657 172.309C161.802 172.761 162.024 173.179 162.077 173.657C162.12 174.044 162.097 174.441 162.097 174.83C162.097 175.103 162.039 175.344 161.974 175.607C161.901 175.899 161.91 176.208 161.886 176.506C161.855 176.9 161.754 177.287 161.673 177.672C161.565 178.184 161.333 178.684 161.286 179.205C161.246 179.656 161.395 180.116 161.501 180.549C161.55 180.746 161.615 180.93 161.705 181.113C161.841 181.39 162.049 181.772 162.307 181.946C162.573 182.126 162.381 181.714 162.337 181.618C162.162 181.235 162.112 180.817 161.936 180.439C161.919 180.403 161.795 180.118 161.712 180.161C161.643 180.197 161.594 180.346 161.553 180.407C161.465 180.538 161.435 180.596 161.534 180.737C161.737 181.026 162 181.234 162.257 181.472C162.478 181.679 162.627 181.949 162.779 182.207C162.822 182.279 162.908 182.553 163.025 182.515C163.239 182.447 163.358 182.385 163.591 182.46C163.62 182.47 163.759 182.511 163.778 182.549C163.829 182.65 163.557 182.501 163.448 182.47C163.144 182.384 162.94 182.324 162.688 182.131C162.429 181.931 162.202 181.697 161.957 181.48C161.808 181.348 161.624 181.236 161.527 181.057C161.462 180.936 161.338 180.925 161.239 181.031C161.148 181.129 161.115 181.268 161.023 181.364C161 181.388 160.933 181.41 160.942 181.351C160.955 181.266 161.012 181.183 161.049 181.109C161.123 180.958 161.148 180.81 161.197 180.653C161.305 180.312 161.564 180.086 161.602 179.718C161.658 179.161 161.66 178.585 161.66 178.025C161.66 177.232 161.507 176.468 161.398 175.685C161.306 175.026 161.282 174.384 161.282 173.719C161.282 173.447 161.34 173.184 161.34 172.915C161.34 172.634 161.363 172.345 161.327 172.066C161.277 171.675 161.251 171.269 161.324 170.879C161.372 170.62 161.434 170.426 161.401 170.164C161.342 169.687 161.129 169.222 161.007 168.758C160.751 167.788 160.544 166.813 160.227 165.863C160.171 165.695 160.22 165.503 160.201 165.329C160.184 165.161 160.138 164.953 160.07 164.797C159.908 164.421 159.541 164.2 159.257 163.923C159.074 163.744 159.094 163.559 159.027 163.34C158.952 163.094 158.803 162.867 158.72 162.619" stroke="#51830D" stroke-width="1.0331" stroke-linecap="round"/>
<path d="M154.064 169.226C153.894 169.181 153.74 169.047 153.589 168.961C153.154 168.716 152.737 168.445 152.439 168.033C152.264 167.79 152.223 167.563 152.166 167.283C152.102 166.969 151.845 166.678 151.677 166.413C151.464 166.075 151.24 165.792 151.218 165.376C151.211 165.248 151.208 165.044 151.283 164.932C151.335 164.852 151.474 164.851 151.558 164.825C152.03 164.676 152.462 165.071 152.707 165.441C153.197 166.178 153.147 167.118 153.424 167.933C153.523 168.227 153.668 168.508 153.81 168.783C153.939 169.033 154.083 169.273 154.232 169.511C154.316 169.645 154.478 169.822 154.527 169.978C154.54 170.021 154.438 169.957 154.4 169.933C154.118 169.75 153.864 169.522 153.65 169.262C153.201 168.717 152.891 168.032 152.606 167.389C152.461 167.064 152.369 166.713 152.264 166.374C152.178 166.093 152.108 165.768 151.902 165.546C151.879 165.521 151.743 165.421 151.868 165.497C152.223 165.714 152.388 166.164 152.693 166.442C152.931 166.659 153.212 166.806 153.419 167.058C153.649 167.338 153.874 167.631 154.058 167.944C154.222 168.225 154.338 168.519 154.436 168.829C154.483 168.977 154.532 169.125 154.583 169.272C154.6 169.32 154.677 169.503 154.549 169.353C154.173 168.909 153.932 168.357 153.67 167.844C153.394 167.304 153.113 166.795 152.754 166.308C152.577 166.066 152.452 165.773 152.243 165.556C152.127 165.434 151.976 165.361 151.858 165.236C151.755 165.125 151.724 165.176 151.778 165.324C152.046 166.069 152.713 166.638 153.225 167.213C153.518 167.542 153.779 167.893 154.119 168.175C154.461 168.46 154.668 168.821 154.853 169.223C155.024 169.595 155.148 169.983 155.191 170.391C155.234 170.794 155.152 171.097 155.033 171.472C154.954 171.721 155.038 171.897 155.118 172.127C155.263 172.541 155.462 172.914 155.654 173.306C156.097 174.212 156.352 175.192 156.748 176.118C156.946 176.579 157.256 177.047 157.374 177.536C157.392 177.611 157.392 177.748 157.272 177.745C157.048 177.74 156.874 177.446 156.786 177.291C156.365 176.556 156.17 175.699 155.814 174.931C155.694 174.674 155.548 174.425 155.445 174.16C155.391 174.02 155.359 173.873 155.29 173.738C155.144 173.452 154.908 173.219 154.746 172.941C154.485 172.49 154.24 172.042 154.098 171.537C153.96 171.046 153.869 170.547 153.708 170.064C153.644 169.872 153.585 169.68 153.526 169.487C153.515 169.451 153.411 169.102 153.474 169.31C153.563 169.606 153.803 169.85 153.977 170.096C154.265 170.506 154.49 170.951 154.756 171.374C154.931 171.652 155.023 171.967 155.162 172.263C155.279 172.513 155.434 172.738 155.568 172.978C155.767 173.335 155.92 173.707 156.064 174.089C156.282 174.663 156.567 175.174 156.826 175.727C157.114 176.343 157.274 177.014 157.508 177.651C157.791 178.419 158.182 179.177 158.302 179.993C158.397 180.633 158.467 181.32 158.815 181.885C158.984 182.16 159.285 182.265 159.591 182.295C159.62 182.298 159.798 182.345 159.814 182.305C159.872 182.162 159.606 181.787 159.536 181.668C159.404 181.44 159.231 181.241 159.109 181.007C158.955 180.709 158.841 180.409 158.576 180.185C158.37 180.012 158.093 179.913 157.854 179.792C157.839 179.784 157.575 179.602 157.554 179.705C157.511 179.911 157.623 180.224 157.667 180.42C157.708 180.601 157.752 180.814 157.848 180.979C157.939 181.134 157.835 180.777 157.835 180.777C157.696 180.441 157.492 180.14 157.308 179.828C157.143 179.548 157.014 179.246 156.765 179.029C156.514 178.811 156.25 178.664 156.069 178.377C155.994 178.257 155.895 178.162 155.811 178.049C155.649 177.833 155.55 177.544 155.461 177.292C155.322 176.896 155.274 176.499 155.296 176.079C155.317 175.694 155.392 175.46 155.594 175.148C155.753 174.902 155.87 174.794 155.985 175.158C156.241 175.962 156.256 176.879 156.292 177.716C156.3 177.897 156.304 178.078 156.305 178.259C156.305 178.273 156.332 178.521 156.289 178.343C156.074 177.452 155.663 176.666 155.303 175.83C155.053 175.252 154.921 174.52 155.157 173.919C155.228 173.738 155.285 173.537 155.398 173.376C155.464 173.283 155.588 173.273 155.642 173.162C155.796 172.847 155.331 172.641 155.481 172.296C155.493 172.266 155.567 172.088 155.597 172.074C155.675 172.039 155.842 172.448 155.869 172.494C156.073 172.851 156.478 172.98 156.723 173.301C156.879 173.507 156.925 173.75 156.959 174C157 174.304 157.06 174.6 157.12 174.901C157.153 175.066 157.176 175.239 157.295 175.368C157.488 175.578 157.598 175.759 157.673 176.041C157.842 176.669 157.813 177.328 157.85 177.973C157.874 178.409 157.993 178.786 158.146 179.191C158.157 179.222 158.318 179.639 158.183 179.567C157.853 179.394 157.62 178.981 157.347 178.733C157.021 178.437 156.763 178.397 156.703 177.929C156.641 177.443 156.753 176.948 156.886 176.482C156.99 176.118 157.188 175.864 157.36 175.538C157.508 175.255 157.523 174.894 157.495 174.582C157.48 174.408 157.427 174.242 157.405 174.069C157.394 173.985 157.411 173.878 157.386 173.796C157.335 173.634 157.1 173.68 156.975 173.68C156.925 173.68 156.837 173.654 156.849 173.731C156.923 174.213 157.185 174.67 157.321 175.135C157.446 175.565 157.483 176.015 157.62 176.442C157.74 176.814 157.874 177.16 157.874 177.557C157.874 177.844 157.712 177.459 157.677 177.396C157.42 176.934 157.168 176.468 156.975 175.976C156.959 175.935 156.941 175.924 156.904 175.908C156.88 175.898 156.897 175.96 156.9 175.986C156.925 176.164 156.943 176.342 156.962 176.521C157 176.883 157.071 177.228 157.185 177.574C157.325 177.998 157.45 178.505 157.693 178.883C157.807 179.062 157.971 179.212 158.095 179.385C158.283 179.645 158.447 179.912 158.613 180.185C158.853 180.58 159.188 180.937 159.362 181.37C159.423 181.524 159.471 181.684 159.556 181.828C159.64 181.971 159.764 182.076 159.868 182.203C159.992 182.356 159.93 181.958 159.915 181.917" stroke="#51830D" stroke-width="1.0331" stroke-linecap="round"/>
<path d="M158.838 188.058C158.451 187.766 158.154 187.377 157.822 187.027C157.616 186.809 157.376 186.579 157.196 186.34C157.082 186.187 156.984 185.998 156.888 185.832C156.765 185.62 156.64 185.556 156.451 185.41C156.339 185.323 156.104 185.216 156.048 185.077C156.003 184.962 155.98 184.826 155.943 184.706C155.827 184.324 156.023 185.581 156.323 185.845C156.457 185.962 156.598 186.075 156.726 186.199C156.941 186.408 157.094 186.663 157.287 186.889C157.473 187.108 157.707 187.229 157.94 187.389C158.294 187.632 158.56 187.978 158.915 188.217C159.077 188.325 159.248 188.369 159.439 188.377C159.568 188.383 159.581 188.38 159.475 188.278C159.157 187.976 158.849 187.665 158.539 187.355C158.428 187.245 158.245 187.132 158.165 186.994C158.078 186.844 158.39 186.782 158.464 186.771C158.884 186.711 159.301 186.717 159.717 186.616C159.823 186.59 159.943 186.556 160.041 186.503C160.095 186.474 160.233 186.353 160.183 186.388C159.862 186.618 159.615 186.937 159.316 187.192C158.953 187.501 159.164 186.886 159.216 186.754C159.351 186.411 159.517 186.092 159.763 185.817C159.882 185.683 160.002 185.532 160.154 185.432C160.261 185.362 160.281 185.24 160.329 185.125C160.436 184.864 160.55 184.684 160.817 184.566" stroke="#51830D" stroke-width="1.0331" stroke-linecap="round"/>
<path d="M168.279 190.762C167.468 190.762 166.665 190.646 165.855 190.646C165.505 190.646 165.18 190.609 164.834 190.55C164.72 190.53 164.56 190.532 164.449 190.489C164.341 190.447 164.681 190.486 164.796 190.498C165.7 190.599 166.603 190.672 167.502 190.807C167.643 190.828 167.783 190.841 167.92 190.884C168.033 190.919 168.122 190.984 168.239 191.009C168.343 191.031 168.44 191.073 168.544 191.095C168.625 191.113 168.843 191.226 168.778 191.176C168.721 191.131 168.671 191.096 168.655 191.022C168.652 191.008 168.644 190.968 168.651 190.98C168.766 191.165 168.855 191.368 168.956 191.561C168.973 191.593 169.151 191.805 169.059 191.802C168.988 191.799 168.944 191.728 168.886 191.693C168.785 191.63 168.642 191.571 168.521 191.571C167.972 191.571 167.413 191.625 166.867 191.577C166.236 191.521 165.607 191.383 164.976 191.346C164.538 191.32 164.098 191.355 163.66 191.338C163.283 191.323 162.904 191.296 162.531 191.238C162.108 191.173 161.679 191.224 161.252 191.224C161.097 191.224 160.919 191.247 160.767 191.211C160.602 191.171 160.499 191.019 160.34 190.964C160.202 190.917 159.971 190.882 159.83 190.908C159.682 190.935 159.626 190.925 159.481 190.85C159.453 190.835 159.31 190.765 159.318 190.766C159.425 190.783 159.572 190.841 159.66 190.904C159.858 191.049 159.652 191.39 159.568 191.553C159.536 191.615 159.508 191.687 159.467 191.744C159.398 191.84 159.598 191.784 159.64 191.779C159.749 191.767 159.828 191.764 159.929 191.721C160.091 191.653 160.278 191.711 160.443 191.738C160.669 191.775 160.917 191.791 161.143 191.738C161.518 191.648 161.263 191.009 161.29 190.752C161.297 190.69 161.474 190.276 161.574 190.471C161.664 190.644 161.694 190.945 161.682 191.136C161.666 191.403 161.269 191.169 161.148 191.104C160.898 190.969 160.63 190.625 160.626 190.325C160.623 190.133 161.203 190.332 161.271 190.357C161.578 190.468 161.834 190.621 162.067 190.848C162.237 191.013 162.388 191.182 162.53 191.372C162.61 191.479 162.638 191.578 162.78 191.598C163.211 191.657 163.665 191.49 164.086 191.42C164.391 191.369 164.655 191.376 164.953 191.441C165.237 191.502 165.495 191.66 165.785 191.693C166.157 191.734 166.517 191.744 166.892 191.744C167.257 191.744 167.635 191.77 167.998 191.728C168.286 191.694 168.539 191.682 168.823 191.73C169.005 191.76 169.03 191.715 168.828 191.686" stroke="#51830D" stroke-width="1.0331" stroke-linecap="round"/>
<path d="M162.933 191.802C162.672 191.783 162.416 191.724 162.153 191.717C161.91 191.71 161.712 191.696 161.488 191.6" stroke="#51830D" stroke-width="1.0331" stroke-linecap="round"/>
<path d="M158.184 195.408V192.308H170.064V195.408L169.031 202.639H159.217L158.184 195.408Z" fill="#F68053" stroke="#F68053" stroke-width="1.0331"/>
<path d="M179.003 191.522C179.564 191.972 180.35 194.083 179.003 196.239" stroke="#FCEED0" stroke-width="1.0331"/>
<path d="M190.539 193.514C190.444 193.514 190.327 193.508 190.563 193.518C191.829 193.57 193.08 193.74 194.323 193.981C195.065 194.125 195.831 194.26 196.558 194.47C196.804 194.541 196.507 194.613 196.411 194.637C195.643 194.829 194.826 194.897 194.04 194.95C192.335 195.067 190.546 195.115 188.852 194.844C188.747 194.828 188.374 194.757 188.713 194.712C189.13 194.658 189.562 194.65 189.981 194.654C190.628 194.659 191.274 194.723 191.92 194.76C192.393 194.787 190.971 194.76 190.496 194.76C190.33 194.76 190.164 194.76 189.998 194.76C189.964 194.76 189.929 194.76 189.895 194.76C189.84 194.76 189.862 194.76 189.927 194.758C190.624 194.731 191.327 194.697 192.023 194.747C192.042 194.748 192.941 194.851 192.534 194.963C192.046 195.098 191.525 195.092 191.024 195.119C190.211 195.163 189.403 195.092 188.607 194.914C187.928 194.761 187.237 194.528 186.546 194.446C186.144 194.399 185.847 194.291 185.434 194.323C185.081 194.35 184.709 194.383 184.356 194.368C184.204 194.362 183.988 194.331 183.841 194.284C183.695 194.237 184.132 194.17 184.285 194.161C185.392 194.095 186.518 194.128 187.625 194.18C188.472 194.22 189.319 194.312 190.167 194.314C190.499 194.315 191.48 194.304 191.158 194.223C191.119 194.214 190.934 194.223 190.933 194.223C190.522 194.244 190.112 194.282 189.702 194.321C188.326 194.453 186.938 194.643 185.555 194.498C185.479 194.49 184.612 194.433 184.599 194.223C184.588 194.063 185.634 193.915 185.702 193.903C186.801 193.711 187.916 193.675 189.029 193.67C189.329 193.668 189.628 193.67 189.927 193.67C190.133 193.67 189.959 193.67 189.942 193.67C189.509 193.655 189.082 193.557 188.651 193.52C187.728 193.442 186.794 193.543 185.875 193.442C185.66 193.419 185.099 193.246 185.295 193.155C185.732 192.952 186.366 192.972 186.831 192.938C187.325 192.903 187.817 192.882 188.304 192.796C188.505 192.76 188.61 192.735 188.33 192.735C187.86 192.735 187.389 192.735 186.918 192.735C186.77 192.735 186.597 192.76 186.453 192.731C186.377 192.716 186.06 192.546 186.273 192.51C186.756 192.429 187.252 192.535 187.738 192.445C188.178 192.364 188.55 192.274 188.999 192.346C189.442 192.416 189.931 192.301 190.364 192.404C190.817 192.512 191.4 192.423 191.863 192.423C192.043 192.423 192.257 192.39 192.426 192.462C192.609 192.541 192.812 192.471 193.001 192.519C193.484 192.639 193.993 192.496 194.472 192.61C194.798 192.687 195.263 192.829 195.29 193.25C195.31 193.548 195.128 193.807 194.819 193.819C194.363 193.836 194.227 193.625 193.966 193.311C193.749 193.048 193.652 192.886 193.3 192.83C192.864 192.761 192.439 192.735 192 192.735C191.877 192.735 191.786 192.713 191.928 192.809C192.243 193.021 192.559 193.193 192.91 193.336C193.234 193.469 193.563 193.592 193.878 193.745C194.04 193.824 194.26 193.909 194.371 194.061C194.542 194.296 194.475 194.666 194.676 194.907C194.787 195.041 194.832 195.244 194.786 195.405C194.76 195.497 194.819 195.539 194.901 195.539C195.024 195.539 194.656 195.578 194.533 195.578C194.373 195.578 194.596 195.578 194.624 195.578C194.783 195.578 194.941 195.58 195.1 195.576C195.124 195.575 195.32 195.543 195.359 195.565C195.477 195.63 195.071 195.85 194.992 195.85C194.733 195.85 194.339 195.932 194.105 195.792C193.961 195.706 193.839 195.661 193.672 195.656C193.204 195.642 192.731 195.695 192.253 195.695C192.018 195.695 191.806 195.612 191.576 195.578C191.345 195.544 191.124 195.539 190.89 195.539C190.252 195.539 189.613 195.539 188.975 195.539C188.553 195.539 188.094 195.587 187.677 195.519C187.08 195.423 186.484 195.568 185.884 195.47C185.748 195.447 185.635 195.443 185.498 195.405C185.275 195.342 184.878 195.572 184.659 195.647C184.31 195.767 183.831 195.721 183.474 195.636C183.108 195.549 182.717 195.578 182.344 195.578C182.018 195.578 181.656 195.61 181.332 195.654C181.129 195.68 180.907 195.656 180.702 195.656C180.512 195.656 180.324 195.695 180.142 195.695C180.095 195.695 179.932 195.709 180.066 195.692C180.217 195.674 180.288 195.511 180.367 195.4C180.418 195.328 180.47 195.206 180.451 195.115C180.438 195.047 180.201 195.534 180.172 195.569C180.12 195.632 179.999 195.617 179.928 195.617C179.727 195.617 179.922 195.621 180.016 195.569C180.216 195.458 180.461 195.222 180.549 195.011C180.644 194.778 180.363 195.042 180.315 195.119C180.219 195.273 180.202 195.347 180.081 195.446C179.978 195.531 179.874 195.538 179.822 195.656C179.756 195.803 180.031 195.563 180.079 195.522C180.498 195.167 180.886 194.66 180.717 194.089C180.655 193.881 180.679 193.656 180.626 193.445C180.602 193.347 180.591 193.073 180.531 193.016C180.456 192.946 180.435 192.741 180.417 192.64C180.4 192.549 180.321 192.599 180.267 192.532C180.194 192.44 180.263 192.461 180.124 192.421C180.084 192.41 180.026 192.369 179.995 192.337C179.924 192.266 180.18 192.307 180.239 192.307C180.387 192.307 180.521 192.268 180.67 192.268C180.766 192.268 180.863 192.268 180.96 192.268C181.146 192.268 180.586 192.268 180.399 192.268C180.279 192.268 180.036 192.013 180.298 192.173C180.612 192.365 181.15 192.268 181.507 192.268C181.681 192.268 181.824 192.194 181.989 192.19C182.382 192.18 182.77 192.116 183.162 192.112C183.578 192.107 183.913 192.219 184.309 192.298C184.483 192.333 184.684 192.307 184.862 192.307C185.03 192.307 185.2 192.306 185.364 192.346C185.435 192.363 185.492 192.418 185.563 192.423C186.333 192.481 185.325 193.335 185.031 193.41C184.813 193.466 184.566 193.432 184.343 193.438C183.919 193.449 183.513 193.559 183.093 193.605C182.649 193.653 182.203 193.611 181.76 193.574C181.523 193.555 181.31 193.534 181.124 193.706C181.058 193.768 181.006 193.828 181.111 193.873C181.542 194.059 182.092 194.103 182.552 194.167C183.196 194.257 183.813 194.259 184.449 194.109C184.917 193.998 185.362 193.77 185.832 193.678C185.85 193.675 186.048 193.643 186.044 193.696C186.028 193.903 185.35 194.049 185.217 194.085C184.518 194.274 183.717 194.234 182.991 194.271C182.675 194.287 182.548 194.228 182.275 194.457C182.145 194.566 181.886 194.958 182.115 195.095C182.279 195.194 182.459 195.209 182.647 195.184C183.171 195.114 183.691 194.915 184.2 194.777C184.514 194.693 184.827 194.604 185.152 194.604C185.754 194.604 186.418 194.613 187.004 194.464C187.466 194.346 187.273 193.934 187.048 193.674C186.891 193.494 186.739 193.271 186.517 193.168C186.212 193.026 185.868 192.988 185.542 192.925C184.597 192.744 183.645 192.701 182.688 192.618C182.428 192.596 182.054 192.633 181.816 192.523C181.584 192.416 181.396 192.423 181.135 192.423C180.787 192.423 180.421 192.335 180.103 192.229" stroke="#FCEED0" stroke-width="2.06619" stroke-linecap="round"/>
<path d="M178.329 196.239H205.953C206.627 195.565 207.57 193.746 205.953 191.859L178.329 191.522" stroke="#F68053" stroke-width="1.0331"/>
<path d="M195.174 191.859C195.735 192.533 196.521 194.622 195.174 196.239" stroke="#F68053" stroke-width="1.0331"/>
<path d="M204.791 194.449C203.962 194.374 203.124 194.159 202.295 194.137C202.057 194.131 201.826 194.126 201.589 194.107C201.105 194.068 200.617 194.137 200.131 194.137C199.786 194.137 199.447 194.098 199.106 194.098C198.752 194.098 198.395 194.049 198.115 193.834C197.789 193.585 198.37 193.67 198.561 193.67C198.788 193.67 199.202 193.599 199.409 193.717C199.674 193.869 200.117 193.67 200.408 193.67C200.51 193.67 200.621 193.687 200.711 193.631C200.785 193.585 200.885 193.519 200.975 193.514C201.215 193.502 201.549 193.585 201.762 193.466C202.008 193.329 202.259 193.358 202.533 193.358C202.961 193.358 203.389 193.358 203.818 193.358C204.157 193.358 204.443 193.615 204.752 193.631C205.148 193.652 205.025 194.128 205.025 194.41" stroke="#F68053" stroke-width="5.16548" stroke-linecap="round"/>
<path d="M197.393 195.033C197.406 194.76 197.45 194.362 197.8 194.327C198.242 194.283 198.624 194.883 198.683 195.26C198.809 196.065 197.728 196.001 197.45 195.431C197.293 195.11 197.956 194.8 197.872 195.232C197.8 195.596 197.376 195.672 197.056 195.651C196.916 195.643 196.441 195.468 196.589 195.247C196.773 194.97 197.812 195.062 197.515 195.392C197.362 195.561 197.063 195.775 196.835 195.816C196.62 195.855 196.542 195.48 196.602 195.333C196.702 195.087 197.389 195.341 196.879 195.638C196.726 195.727 196.527 195.83 196.348 195.848C196.332 195.85 196.288 195.857 196.273 195.842C196.263 195.832 196.27 195.768 196.247 195.777C196.166 195.808 195.962 195.987 195.87 195.898C195.689 195.722 195.971 195.247 196.091 195.124C196.148 195.065 196.61 194.677 196.615 194.894C196.618 195.066 196.612 195.225 196.537 195.383C196.409 195.651 196.325 195.398 196.31 195.212C196.263 194.664 196.366 194.22 196.461 193.696C196.477 193.605 196.59 193.924 196.591 193.932C196.599 193.982 196.65 194.498 196.489 194.44C196.225 194.346 196.342 193.597 196.342 193.378C196.342 193.313 196.363 193.065 196.264 193.047C196.077 193.012 196.072 192.659 195.944 192.562C195.726 192.396 195.645 192.156 195.959 192.097C196.534 191.989 196.8 192.604 197.346 192.571C197.594 192.556 197.837 192.479 198.086 192.454C198.245 192.438 198.726 192.424 198.566 192.424C198.329 192.424 198.103 192.536 197.861 192.54C197.623 192.544 197.434 192.461 197.205 192.428C196.999 192.398 196.817 192.346 196.606 192.346C196.282 192.346 196.174 192.278 196.327 192.62C196.412 192.812 196.563 192.962 196.669 193.142C196.79 193.347 196.728 193.326 196.636 193.146C196.527 192.93 196.431 192.647 196.255 192.471C196.23 192.446 196.177 192.443 196.156 192.415C196.071 192.299 196.495 192.2 196.524 192.194C197.034 192.088 197.529 192.32 198.042 192.276C198.481 192.24 198.889 192.312 199.321 192.363C200.01 192.445 200.679 192.532 201.374 192.582C202.174 192.638 202.964 193.636 202.491 194.41C202.221 194.85 201.714 195.111 201.201 195.028C200.926 194.984 200.67 194.861 200.44 194.708C200.415 194.692 200.106 194.505 200.135 194.425C200.214 194.201 200.731 194.09 200.92 194.083C201.378 194.065 201.789 194.431 201.374 194.829C200.745 195.433 199.706 195.062 199.051 194.721C198.798 194.59 198.559 194.436 198.315 194.288C198.226 194.234 198.036 194.163 198.016 194.038C198.013 194.017 198.055 193.842 198.086 193.873C198.164 193.952 197.701 194.087 197.67 194.089C197.386 194.112 197.187 193.855 197.017 193.663C196.973 193.614 196.866 193.433 196.77 193.484C196.486 193.634 197.44 194.213 197.534 194.256C197.782 194.371 198.072 194.554 198.358 194.518C198.702 194.474 199.024 194.182 199.174 193.886C199.236 193.764 199.389 193.38 199.092 193.495C198.727 193.635 198.197 194.124 198.112 194.518C198.044 194.832 198.463 195.018 198.691 195.093C198.997 195.193 199.955 195.463 200.169 195.089C200.304 194.855 200.365 194.385 200.033 194.291C199.637 194.178 199.4 194.504 199.427 194.868C199.463 195.365 199.985 195.68 200.433 195.757C200.613 195.789 201.163 195.773 200.98 195.773C200.721 195.773 200.464 195.783 200.21 195.842C200.082 195.872 199.933 195.925 200.13 195.989C200.328 196.053 200.544 196.104 200.753 196.08C200.917 196.061 201.072 195.962 201.236 195.928C201.66 195.841 202.042 196.07 202.46 196C202.671 195.965 202.873 195.873 203.088 195.833C203.314 195.791 203.536 195.711 203.754 195.638C204.216 195.484 204.727 195.571 205.173 195.383C205.411 195.283 205.627 195.168 205.885 195.13C206.143 195.092 206.334 195.124 206.428 194.812C206.534 194.461 206.34 194.141 206.216 193.826C206.1 193.53 205.959 193.324 205.924 192.995C205.904 192.808 205.94 192.58 205.805 192.424C205.736 192.344 205.637 192.229 205.528 192.229C205.095 192.229 204.654 192.203 204.223 192.251C203.511 192.33 202.828 192.407 202.11 192.354C201.494 192.309 200.871 192.25 200.253 192.27C199.659 192.289 199.035 192.384 198.445 192.463C198.092 192.509 197.748 192.54 197.391 192.54C197.124 192.54 196.781 192.484 196.524 192.579C196.354 192.642 196.512 193.017 196.558 193.103C196.673 193.315 196.849 193.473 197.026 193.633C197.321 193.9 197.603 194.184 197.908 194.44C198.152 194.645 198.428 194.804 198.622 195.063C198.824 195.331 198.747 195.392 198.458 195.236C198.07 195.026 197.748 194.664 197.614 194.241C197.522 193.95 197.497 193.683 197.861 193.659C198.417 193.622 198.737 193.917 199.107 194.293C199.384 194.575 199.663 194.853 199.964 195.111C200.105 195.232 200.279 195.332 200.414 195.461C200.448 195.494 200.365 195.488 200.362 195.396C200.346 194.898 201.202 194.63 201.558 194.544C202.09 194.414 202.629 194.459 203.153 194.6C203.376 194.66 203.496 194.697 203.711 194.604C203.984 194.487 204.263 194.396 204.554 194.336C204.676 194.311 204.923 194.241 205.026 194.293" stroke="#F68053" stroke-width="1.0331" stroke-linecap="round"/>
<path d="M200.817 195.317C200.6 195.317 200.408 195.263 200.198 195.218C200.086 195.194 200.005 195.207 199.906 195.265C199.803 195.326 199.695 195.385 199.585 195.433C199.539 195.453 199.467 195.449 199.428 195.481C199.359 195.539 199.253 195.613 199.163 195.627C199.116 195.634 198.866 195.682 198.9 195.778C198.93 195.867 199.165 195.793 199.233 195.793C199.412 195.793 199.585 195.829 199.764 195.829C199.948 195.829 200.132 195.833 200.315 195.82C200.652 195.796 200.99 195.842 201.328 195.82C201.436 195.813 201.54 195.813 201.647 195.825C201.791 195.841 201.533 195.853 201.53 195.854C201.112 195.864 200.696 195.793 200.277 195.793C200.164 195.793 200.061 195.771 199.949 195.76C199.71 195.737 199.498 195.789 199.266 195.821C198.988 195.859 198.734 195.916 198.45 195.894C198.382 195.889 198.063 195.912 198.035 195.829" stroke="#F68053" stroke-width="2.06619" stroke-linecap="round"/>
<path d="M193.088 202.105C192.971 202.093 192.836 202.049 192.756 201.961C192.691 201.89 192.593 201.792 192.589 201.689C192.587 201.649 192.6 201.511 192.635 201.481C192.651 201.468 192.679 201.487 192.695 201.469C192.722 201.439 192.704 201.337 192.704 201.303C192.704 201.123 192.686 201.008 192.632 200.836C192.561 200.605 192.449 200.384 192.365 200.155C192.271 199.896 192.317 199.64 192.434 199.395C192.637 198.97 192.785 198.542 192.785 198.066C192.785 197.944 192.763 197.79 192.805 197.672C192.819 197.634 192.826 197.814 192.826 197.831C192.818 198.047 192.692 198.287 192.644 198.496C192.552 198.894 192.522 199.282 192.522 199.688C192.522 200.076 192.544 200.47 192.511 200.856C192.501 200.978 192.484 201.101 192.462 201.222C192.453 201.273 192.413 201.35 192.426 201.402C192.451 201.502 192.51 201.593 192.552 201.687C192.577 201.745 192.639 201.772 192.664 201.822" stroke="#FCEED0" stroke-width="2.06619" stroke-linecap="round"/>
<path d="M181.697 202.639H192.477C191.129 200.753 191.916 197.923 192.477 196.912H181.697C179.81 199.068 180.911 201.629 181.697 202.639Z" fill="#5A9686"/>
<path d="M208.647 202.639H181.697C180.911 201.629 179.81 199.068 181.697 196.912H192.477M208.647 196.912H192.477M192.477 196.912C191.916 197.923 191.129 200.753 192.477 202.639" stroke="#5A9686" stroke-width="1.0331"/>
<path d="M193.15 197.586H207.636C207.636 197.586 207.258 198.987 207.299 199.944C207.335 200.776 207.636 201.966 207.636 201.966H193.15V197.586Z" fill="#FCEED0" stroke="#FCEED0" stroke-width="1.0331"/>
<path d="M195.622 190.222C195.518 190.212 195.286 190.699 195.215 190.627C195.158 190.568 195.071 190.487 195.067 190.403C195.065 190.369 195.077 190.256 195.108 190.232C195.122 190.221 195.147 190.237 195.161 190.222C195.185 190.197 195.169 190.113 195.169 190.085C195.169 189.937 195.153 189.842 195.106 189.7C195.042 189.51 194.942 189.328 194.868 189.14C194.784 188.927 194.825 188.715 194.929 188.514C195.11 188.164 195.241 187.811 195.241 187.419C195.241 187.319 195.221 187.191 195.259 187.095C195.271 187.063 195.278 187.212 195.277 187.226C195.27 187.404 195.158 187.601 195.116 187.773C195.034 188.101 195.008 188.421 195.008 188.755C195.008 189.074 195.027 189.399 194.998 189.717C194.989 189.817 194.974 189.919 194.954 190.018C194.946 190.06 194.911 190.124 194.922 190.166C194.944 190.249 194.997 190.324 195.034 190.401C195.056 190.449 195.112 190.472 195.133 190.512" stroke="#FCEED0" stroke-width="2.06619" stroke-linecap="round"/>
<path d="M185.192 191.185H194.967C193.771 189.632 194.468 187.301 194.967 186.469H185.397C183.722 188.245 184.494 190.353 185.192 191.185Z" fill="#99BEF3"/>
<path d="M209.322 191.185H185.192C184.494 190.353 183.722 188.245 185.397 186.469H194.967M209.322 186.469H194.967M194.967 186.469C194.468 187.301 193.771 189.632 194.967 191.185" stroke="#99BEF3" stroke-width="0.516548"/>
<path d="M195.621 187.143H208.209C208.209 187.143 207.871 188.22 207.908 188.957C207.94 189.596 208.209 190.511 208.209 190.511H195.621V187.143Z" fill="#FCEED0" stroke="#FCEED0" stroke-width="1.54965"/>
<path d="M238.846 202.272L239.798 202.272C240.356 202.272 240.412 186.11 239.798 186.11L230.5 186.11C229.467 186.11 229.735 202.272 230.5 202.272C231.278 202.272 236.61 202.272 238.846 202.272Z" fill="#E6B400" stroke="#E6B400" stroke-width="1.0331"/>
<path d="M229.467 199.54H239.281" stroke="#E9DFC3" stroke-width="2.06619"/>
<path d="M233.199 183.096C233.215 183.098 232.93 183.096 232.93 183.096" stroke="#847C68" stroke-width="2.06619" stroke-linecap="round"/>
<path d="M229.983 185.593H240.314" stroke="#847C68" stroke-width="1.0331" stroke-linecap="round"/>
<path d="M233.083 185.593V184.56V183.527" stroke="#847C68" stroke-width="1.0331"/>
<path d="M147.336 204.189L247.546 203.138" stroke="#8091A7" stroke-width="2.58274"/>
<path d="M210.466 321.934V318.834H213.565L215.115 319.868C215.115 319.868 222.346 322.45 222.346 323.483H215.115C213.875 323.483 211.499 322.45 210.466 321.934Z" fill="#0C1029" stroke="#0C1029" stroke-width="0.516548"/>
<path d="M225.962 322.45V318.834H228.545C229.578 318.834 237.843 320.901 237.843 321.417C237.843 321.83 234.743 322.278 233.71 322.45H225.962Z" fill="#0C1029" stroke="#0C1029" stroke-width="0.516548"/>
<path d="M225.962 318.318C225.962 318.318 223.035 297.484 221.83 285.776C224.068 284.054 228.855 281.54 230.095 285.259C231.335 288.978 229.234 308.848 228.029 318.318H225.962Z" fill="#FACEB3" stroke="#FACEB3" stroke-width="0.516548"/>
<path d="M210.467 318.317C210.467 318.317 207.884 286.808 208.4 285.259C208.917 283.709 215.735 284.122 216.149 285.775C216.562 287.428 214.599 308.159 213.566 318.317H210.467Z" fill="#FACEB3" stroke="#FACEB3" stroke-width="0.516548"/>
<path d="M207.367 254.782C207.367 254.782 209.777 249.961 209.949 249.1C210.725 249.052 211.622 249.013 212.597 248.991L209.95 248.584C209.433 248.584 208.4 248.377 208.4 247.551C208.4 247.551 211.155 242.902 212.016 240.836V236.703L210.983 225.339L209.433 227.922C209.433 227.922 203.751 225.856 203.751 224.823C203.751 223.789 207.883 213.975 210.466 212.425L217.698 210.876L223.38 211.392C225.618 211.22 230.611 212.942 232.678 221.207L231.645 222.24L225.446 224.306H220.797L215.632 248.067H230.095V251.683L228.85 251.492C229.142 251.71 229.387 251.945 229.578 252.2C232.058 255.506 233.022 274.928 233.194 284.226C223.552 285.259 204.474 286.292 205.3 282.159C206.127 278.027 206.678 275.617 206.85 274.928L207.367 254.782Z" fill="#B9DAED" stroke="#B9DAED" stroke-width="0.516548"/>
<path d="M209.949 249.1H212.532C207.573 266.456 215.631 280.438 220.28 285.259C208.4 285.259 204.784 284.226 205.3 282.676C205.714 281.436 206.506 276.65 206.85 274.411L207.367 254.782C208.193 253.543 209.433 250.478 209.949 249.1Z" fill="#9CCEE9" stroke="#9CCEE9" stroke-width="0.516548"/>
<path d="M217.698 212.942V210.876L223.38 211.392V219.657L222.347 220.69L217.698 212.942Z" fill="#7AB8E7" stroke="#7AB8E7" stroke-width="0.516548"/>
<path d="M218.213 210.876C221.519 214.595 222.69 212.426 222.862 210.876L223.379 206.744L226.478 206.227C228.131 204.574 227.856 199.34 227.511 196.929H223.379V196.413C223.034 196.24 222.242 195.896 221.829 195.896C221.416 195.896 220.968 196.929 220.796 197.446L219.246 199.512C218.558 198.995 217.077 198.169 216.664 198.995C216.25 199.822 217.525 201.406 218.213 202.095V206.227V210.876Z" fill="#FACEB3" stroke="#FACEB3" stroke-width="0.516548"/>
<path d="M209.432 196.412C209.432 203.024 214.942 205.71 217.697 206.227H218.214V202.611L217.181 201.578C216.492 201.233 215.916 199.457 216.147 198.995C216.664 197.962 218.214 198.479 218.73 198.995C218.902 199.167 219.453 199.098 220.28 197.445C221.106 195.792 221.313 195.379 221.83 195.38C222.863 195.38 222.863 195.896 223.896 196.413C224.929 196.93 227.511 196.412 227.511 196.412C230.404 194.759 228.717 191.935 227.511 190.73C222.553 192.797 218.902 192.969 217.697 192.797C211.912 194.036 212.532 190.902 213.565 189.18C212.187 187.286 207.883 187.631 206.849 189.18C204.079 193.334 207.71 195.896 209.432 196.412Z" fill="#F2A555" stroke="#F2A555" stroke-width="0.516548"/>
<path d="M225.446 185.565C227.512 185.565 227.684 188.664 227.512 190.214C223.207 191.936 214.391 194.76 213.565 192.28C212.738 189.801 213.737 188.492 214.598 188.148C215.115 187.631 217.181 187.631 219.247 187.115C220.452 186.598 223.379 185.565 225.446 185.565Z" fill="#B1DFF9" stroke="#B1DFF9" stroke-width="0.516548"/>
<circle cx="224.928" cy="188.664" r="2.06619" fill="#0DB8EE"/>
<path d="M224.929 187.631V188.664M224.929 189.697V188.664M224.929 188.664H225.962H223.896" stroke="#B6E0F9" stroke-width="0.516548"/>
<path d="M220.796 224.306H225.445H237.326L231.644 247.551H215.631L220.796 224.306Z" fill="#001834" stroke="#001834" stroke-width="0.516548"/>
<path d="M225.962 222.756V225.339H233.194V222.756H231.127C231.127 222.756 230.094 220.69 229.578 220.69C229.165 220.69 228.372 222.068 228.028 222.756H225.962Z" fill="#F9BE00" stroke="#F9BE00" stroke-width="0.516548"/>
<path d="M225.962 225.339V222.757C226.375 222.757 227.512 224.478 228.028 225.339H225.962Z" fill="#F39803" stroke="#F39803" stroke-width="0.516548"/>
<path d="M202.718 241.352C201.065 240.939 203.062 230.849 204.268 225.856L208.916 227.922C207.883 230.849 206.024 236.91 206.85 237.736C207.677 238.563 213.738 236.703 216.665 235.67C217.078 234.844 218.214 233.948 218.731 233.604V234.637C218.731 234.637 224.069 232.915 223.896 233.087C225.549 235.567 220.797 237.22 218.214 237.736L217.698 238.253C210.673 241.559 204.784 241.697 202.718 241.352Z" fill="#F9CDB2" stroke="#F9CDB2" stroke-width="0.516548"/>
<path d="M234.744 234.121C234.744 234.121 232.162 232.054 231.645 232.054C231.128 232.054 231.128 235.154 233.711 236.703C234.4 236.876 235.881 237.013 236.294 236.187C236.81 235.154 235.261 232.054 235.261 233.088C235.261 233.914 234.916 234.121 234.744 234.121Z" fill="#F9CDB2" stroke="#F9CDB2" stroke-width="0.516548"/>
</svg>
