<svg width="409" height="289" viewBox="0 0 409 289" fill="none" xmlns="http://www.w3.org/2000/svg">
<path d="M285.432 232.987C301.798 304 139 286 82.5 286C-8.68978 286 38.2333 135.5 7.61201 93.3003C-20.4822 58.5104 38.2333 30.3786 38.2333 30.3786C61.1989 20.0306 104.229 44.7784 142.202 30.3793C189.668 12.3804 257.989 -18.368 301.798 14.5403C387.1 78.6162 429.044 140.391 398.5 200.5C382.5 231.987 270.792 169.466 285.432 232.987Z" fill="#FEF5D6"/>
<rect x="53" y="56" width="236" height="132" fill="#90C0B3" fill-opacity="0.56"/>
<path d="M342.254 120.763L336.254 80.5814C326.654 79.3998 311.774 90.0359 314.654 90.0359C317.534 90.0359 306.654 113.278 306.254 125.49L342.254 120.763Z" fill="#F9CB95"/>
<path d="M339.405 80.0562C298.79 124.73 293.713 77.7049 306.405 49.4897C316.559 57.7192 334.329 49.4897 334.329 62.4217L335.598 73.0024C341.944 70.6511 351.59 68.7701 339.405 80.0562Z" fill="#FEDCA8"/>
<path d="M207.67 175.412C205.787 175.183 165.683 88.2865 145.866 44.867L147.186 43.8326L211.917 169.954C212.463 172.011 212.379 175.983 207.67 175.412Z" fill="#423505"/>
<path d="M216.254 128.036L205.748 136.49C203.024 132.061 197.343 122.963 196.409 121.997C195.242 120.789 190.573 124.413 189.405 124.413C188.238 124.413 163.724 117.166 175.397 97.8424C180.066 93.0115 185.903 102.673 189.405 102.673C192.207 102.673 208.472 119.582 216.254 128.036Z" fill="#FEDCA8"/>
<path d="M368.153 111.463C364.293 105.623 351.881 105.402 347 111.463L350 215C350 215 358.308 207.603 364 209.5C370 211.5 378.5 210 378.5 210C373.619 165.637 372.492 118.029 368.153 111.463Z" fill="#A6C4F7"/>
<path d="M284 231C284.756 225.71 287.084 180.064 288.659 158.424C230.783 209.178 228.42 180.85 201.254 134.818L218.971 126.555L243.775 158.424C270.233 131.985 296.08 111.031 310.254 107.49L316.254 128.49L350.254 108.99V170.99V214.99C350.254 214.99 329.313 215.531 316.5 219C309.286 220.953 305.29 222.376 298.5 225.5C291.987 228.496 283.244 236.29 284 231Z" fill="#C0D5F9"/>
<path d="M316.981 128.786L312.254 124.045L332.345 120.49L322.89 128.786L327.254 177.49L319.754 200.49L312.254 177.49L316.981 128.786Z" fill="#E8552F"/>
<path d="M329.412 139.49L318.754 123.49L302.254 126.918L310.254 107.49L318.754 123.49L340.754 108.99H350.254L329.412 139.49Z" fill="#F68053"/>
<path d="M303.51 33.7296L296 32.4825C296 41.1775 300.437 46.715 303.51 49.095L333.552 64.9067L332.3 78.6246L337.307 74.2598C337.307 74.2598 340.279 71.9231 342.314 72.3892C345.942 73.2202 337.307 82.9464 337.307 82.9464L336.556 84C366.597 61.5525 357.123 55.3457 354.513 49.9417C348.455 28.972 313.263 34.7874 299.755 25L303.51 33.7296Z" fill="#643E0D"/>
<path d="M309 88.6128C311.416 88.6128 318.341 88.2665 320.839 86.9366C321.954 86.0487 322.507 85.5465 321.386 86.5654C321.242 86.6969 321.057 86.8205 320.839 86.9366C319.713 87.8329 318.013 89.1222 316.882 89.6365C315.271 90.369 310.126 89.9778 309 88.6128Z" fill="white"/>
<mask id="mask0_1037_2064" style="mask-type:alpha" maskUnits="userSpaceOnUse" x="0" y="0" width="409" height="289">
<path d="M285.432 232.987C301.798 304 139 286 82.5 286C-8.68978 286 38.2333 135.5 7.61201 93.3003C-20.4822 58.5104 38.2333 30.3786 38.2333 30.3786C61.1989 20.0306 104.229 44.7784 142.202 30.3793C189.668 12.3804 257.989 -18.368 301.798 14.5403C387.1 78.6162 429.044 140.391 398.5 200.5C382.5 231.987 270.792 169.466 285.432 232.987Z" fill="#FEF5D6"/>
</mask>
<g mask="url(#mask0_1037_2064)">
<path d="M152.703 300.47C142.587 300.47 137.17 255.61 134.871 233.577L144.642 232.427L151.554 281.502C156.152 287.825 162.819 300.47 152.703 300.47Z" fill="#FEDCA8"/>
<path d="M97.5248 182.066C91.5471 182.066 85.0713 174.019 82.5806 169.996C96.3752 167.888 123.965 165.053 123.965 170.57C123.965 176.088 114.385 180.533 109.595 182.066V184.94H97.5248V182.066Z" fill="#FEDCA8"/>
<path d="M133.16 138.383C133.16 106.195 76.8325 95.2747 72.8091 138.383C72.8091 157.925 74.5328 180.342 102.122 180.342C112.468 179.767 134.31 177.468 133.16 138.383Z" fill="#643E0D"/>
<path d="M75.683 161.949L73.9586 148.729C72.2343 149.304 68.7856 151.603 68.7856 156.201C68.7856 160.799 73.3839 161.949 75.683 161.949Z" fill="#F9CB95"/>
<path d="M130.287 160.799L132.586 145.855C134.31 147.196 137.759 150.798 137.759 154.477C137.759 158.155 132.777 160.224 130.287 160.799Z" fill="#F9CB95"/>
<path d="M59.0145 229.773L76.2579 232.647V285.5L130.5 287L131.437 232.647L146.381 229.773C146.381 194.826 127.221 184.94 117.642 184.365H96.9498C65.6819 184.365 58.6314 214.637 59.0145 229.773Z" fill="#FBC41A"/>
<path d="M75.6831 216.553L76.8327 187.239L86.0291 185.515L83.73 208.506C82.8103 207.586 77.9822 213.487 75.6831 216.553Z" fill="#E6B400"/>
<path d="M124.539 208.506L121.09 185.515L130.862 187.239C131.151 195.923 131.659 210.577 131.891 215.441C131.969 215.801 132.011 216.172 132.011 216.553C132.011 217.565 131.965 217.016 131.891 215.441C131.116 211.888 126.801 209.376 124.539 208.506Z" fill="#E6B400"/>
<path d="M79.7064 276.904C68.2108 276.904 71.8511 236.67 75.1082 216.553C87.7535 197.585 129.712 205.057 131.437 214.828C131.437 224.025 139.483 276.329 127.413 276.329C127.413 288.974 81.431 291.274 79.7064 276.904Z" fill="#4B773C" fill-opacity="0.71"/>
<path d="M92.3369 207.712C95.7952 202.507 105.005 195.22 114.178 207.712" stroke="#4B773C" stroke-width="2"/>
<path d="M59.0146 232.646V229.772L74.5336 232.646L73.9589 235.52L59.0146 232.646Z" fill="#E6B400"/>
<path d="M133.161 234.371V232.072L146.956 229.772V232.072L133.161 234.371Z" fill="#E6B400"/>
<path d="M83.1553 279.203V247.016H88.903V279.203H83.1553Z" fill="#E6B400"/>
<path d="M117.067 279.203L116.492 247.591H123.39V279.203H117.067Z" fill="#E6B400"/>
<path d="M121.091 220.576C122.815 225.174 121.78 234.371 103.847 234.371C85.9144 234.371 83.7302 225.174 84.8798 220.576L103.847 213.104L121.091 220.576Z" fill="#E6B400"/>
<path d="M120.516 113.093V117.691L125.689 121.14L130.862 118.841L123.39 117.691L120.516 113.093Z" fill="#643E0D"/>
<path d="M63.0379 300.47C56.1405 293.573 60.164 253.147 63.0379 233.796C67.0613 233.413 74.5335 233.221 72.2344 235.521C69.9353 237.82 71.2764 277.096 72.2344 296.447C72.0428 300.662 69.9352 307.368 63.0379 300.47Z" fill="#FEDCA8"/>
<path d="M233.824 283C233.824 283 228.57 254.183 226 232.15L236.921 231L245 280.5L233.824 283Z" fill="#CFAD82"/>
<path d="M191.25 183.057C184.75 183.057 177.708 174.816 175 170.695C190 168.537 219.5 162.349 219.5 168C219.5 173.651 209.583 181.487 204.375 183.057V186H191.25V183.057Z" fill="#CFAD82"/>
<path d="M224.964 138.563C224.087 106.388 167.483 97.0059 164.635 140.208C165.168 159.743 167.502 182.104 195.081 181.352C205.407 180.496 227.178 177.603 224.964 138.563Z" fill="#33210A"/>
<path d="M168 150.5C160.666 141.667 151.714 131.619 162 124C186.484 105.864 191.232 115.275 192.277 115.322L192.5 115C192.453 115.233 192.385 115.327 192.277 115.322L168 150.5Z" fill="#33210A"/>
<path d="M167.683 162.949L165.959 149.73C164.234 150.304 160.786 152.603 160.786 157.202C160.786 161.8 165.384 162.949 167.683 162.949Z" fill="#CFAD82"/>
<path d="M222.287 161.8L224.586 146.856C226.31 148.197 229.759 151.799 229.759 155.477C229.759 159.156 224.777 161.225 222.287 161.8Z" fill="#CFAD82"/>
<path d="M162.417 285.454C153.966 280.019 153.446 249.027 153.295 229.76C157.497 228.661 166.838 226.953 164.78 229.596C162.723 232.239 167.288 261.319 171.501 279.894C171.994 284.012 170.868 290.89 162.417 285.454Z" fill="#CFAD82"/>
<path d="M151.015 230.773L168.258 233.647V288L196 287.5L224.5 284.5L223.437 233.647L238.381 230.773C238.381 195.827 219.221 185.94 209.642 185.366H188.95C157.682 185.366 150.631 215.637 151.015 230.773Z" fill="#FBC41A"/>
<path d="M171.706 277.905C160.211 277.905 163.851 237.67 167.108 217.553C179.754 198.586 221.712 206.058 223.437 215.829C223.437 225.025 231.483 277.33 219.413 277.33C219.413 289.975 173.431 292.274 171.706 277.905Z" fill="#FAA483"/>
<path d="M167.683 217.553L168.833 188.239L178.029 186.515L175.73 209.506C174.81 208.587 169.982 214.488 167.683 217.553Z" fill="#F68053"/>
<path d="M216.539 209.506L213.09 186.515L222.862 188.239C223.151 196.923 223.659 211.577 223.891 216.441C223.969 216.802 224.011 217.172 224.011 217.553C224.011 218.565 223.965 218.016 223.891 216.441C223.116 212.889 218.801 210.376 216.539 209.506Z" fill="#F68053"/>
<path d="M184.337 208.713C187.795 203.508 197.005 196.221 206.178 208.713" stroke="#FAA483" stroke-width="2"/>
<path d="M151 232.874V230L165 232.5V235.5L151 232.874Z" fill="#E6B400"/>
<path d="M225.146 234.598V232.299L238.941 230V232.299L225.146 234.598Z" fill="#E6B400"/>
<path d="M175.155 280.204V248.016H180.903V280.204H175.155Z" fill="#F68053"/>
<path d="M209.067 280.204L208.492 248.591H215.39V280.204H209.067Z" fill="#F68053"/>
<path d="M213.091 221.577C214.815 226.175 213.78 235.371 195.847 235.371C177.914 235.371 175.73 226.175 176.88 221.577L195.847 214.104L213.091 221.577Z" fill="#E6B400"/>
<path d="M212.516 114.093V118.691L217.689 122.14L222.862 119.841L215.39 118.691L212.516 114.093Z" fill="#643E0D"/>
</g>
</svg>
