<svg width="205" height="205" viewBox="0 0 205 205" fill="none" xmlns="http://www.w3.org/2000/svg">
<path d="M0.243466 110.639C1.86073 87.2518 11.5902 68.0483 33.3381 51.7104C43.7393 43.8966 63.5759 58.2222 80.9742 51.7107C102.722 43.5713 134.025 29.6664 154.098 44.5481C193.181 73.5242 212.049 107.058 202.593 135.057C194.701 158.428 169.499 143.522 144.599 159.801C119.699 176.08 93.2235 183.894 73.9971 169.243C54.7707 154.592 49.4789 174.765 20.7306 152.638C4.65609 140.267 -1.33249 133.43 0.243466 110.639Z" fill="#FEF3C8" fill-opacity="0.8"/>
<path d="M147.421 124.668C138.195 103.804 131.018 104.848 117.35 104.847L128.626 130.232L147.421 124.668Z" fill="#F3C10F"/>
<path d="M57.876 123.883C66.8973 103.836 73.9139 104.838 87.2788 104.838L76.2528 129.229L57.876 123.883Z" fill="#F3C10F"/>
<path d="M92.6244 97.4883L89.2832 104.171L92.6244 114.863L116.013 113.192L113.34 97.4883H92.6244Z" fill="#FEDCA8"/>
<path d="M63.8906 173C74.2937 121.269 69.5955 101.997 93.4219 104.363C100.805 108.759 100.469 109.435 112.214 104.363C137.719 103.687 137.048 151.361 140.739 173H63.8906Z" fill="#FAD13E"/>
<path d="M53.5324 141.258C53.1982 147.606 68.902 151.282 70.5726 141.258C71.742 134.241 54.5347 97.4876 53.1982 96.1512C50.7838 93.7369 37.4944 99.7391 33.1508 91.4736C21.4564 91.4737 21.1526 92.1719 25.8001 96.8194C38.4968 109.516 45.5134 105.507 49.5229 105.507C52.7305 105.507 53.5324 129.341 53.5324 141.258Z" fill="#FEDCA8"/>
<path d="M151.995 141.377C152.333 147.741 136.469 151.425 134.782 141.377C133.6 134.344 150.983 97.5025 152.333 96.1629C154.772 93.7428 166.132 100.161 172.584 91.4742C174.817 88.4671 184.704 92.1741 180.009 96.8327C167.184 109.56 160.096 105.541 156.045 105.541C152.805 105.541 151.995 129.432 151.995 141.377Z" fill="#FEDCA8"/>
<path d="M76.2529 74.0996C76.2529 68.219 80.2624 72.0948 82.2671 74.7678L82.9354 80.4479C80.7079 80.7821 76.2529 79.9802 76.2529 74.0996Z" fill="#FFE3B8"/>
<ellipse cx="103.65" cy="70.7584" rx="23.7227" ry="32.0758" fill="#FEDCA8"/>
<path d="M131.383 74.028C131.383 69.0599 127.373 72.3344 125.369 74.5926L124.7 79.3913C126.928 79.6736 131.383 78.9962 131.383 74.028Z" fill="#FEDCA8"/>
<path d="M80.9309 76.7725C80.9309 79.4455 73.5801 63.1848 71.5754 56.391C62.22 47.7038 55.3371 32 94.6299 32C133.923 32 131.829 59.064 127.708 72.763C124.701 77.1066 127.708 66.0806 123.699 60.0664C111.336 35.6754 84.9404 58.0616 82.9356 60.0664C80.9309 62.0711 80.9309 74.7678 80.9309 76.7725Z" fill="#4C2929"/>
<path d="M97.9707 93.479C101.312 90.4719 106.992 90.4719 110.333 93.479H97.9707Z" fill="#FDFDFD"/>
<path d="M41.7593 58.3786V39.3506H46.4763V58.3786C48.0486 58.3786 51.1933 59.4659 51.1933 63.8152V92.8103H37.1602V63.8152C37.1602 61.0969 38.929 58.3786 41.7593 58.3786Z" fill="#274F35"/>
<path d="M160.708 58.3786V39.3506H165.425V58.3786C166.997 58.3786 170.142 59.4659 170.142 63.8152V92.8103H156.108V63.8152C156.108 61.0969 157.877 58.3786 160.708 58.3786Z" fill="#96C1AB"/>
<ellipse cx="44.1768" cy="39.3509" rx="2.33886" ry="0.668246" fill="#21442E"/>
<path d="M51.1935 66.0804H37.1603C36.4921 59.7321 40.1675 58.0615 41.8381 58.3956V39.3506H46.5158V58.3956C50.5253 58.3956 51.8618 62.7392 51.1935 66.0804Z" fill="#610F0F"/>
<path d="M38.6426 84.1232V67.7445H49.8573V84.1232H38.6426Z" fill="#D9D9D9" fill-opacity="0.89"/>
</svg>
