<svg width="148" height="74" viewBox="0 0 148 74" fill="none" xmlns="http://www.w3.org/2000/svg">
<path d="M2.272 32V9.6H9.504C12.1067 9.6 14.2507 10.0587 15.936 10.976C17.6427 11.8933 18.9013 13.1947 19.712 14.88C20.544 16.544 20.96 18.528 20.96 20.832C20.96 23.0933 20.544 25.0667 19.712 26.752C18.9013 28.416 17.6427 29.7067 15.936 30.624C14.2507 31.5413 12.1067 32 9.504 32H2.272ZM6.112 28.736H9.312C11.2533 28.736 12.7787 28.4267 13.888 27.808C15.0187 27.168 15.8187 26.2613 16.288 25.088C16.7787 23.8933 17.024 22.4747 17.024 20.832C17.024 19.168 16.7787 17.7493 16.288 16.576C15.8187 15.3813 15.0187 14.464 13.888 13.824C12.7787 13.1627 11.2533 12.832 9.312 12.832H6.112V28.736ZM34.9175 32.384C32.7628 32.384 30.8535 31.904 29.1895 30.944C27.5468 29.9627 26.2562 28.608 25.3175 26.88C24.3788 25.1307 23.9095 23.104 23.9095 20.8C23.9095 18.5173 24.3788 16.512 25.3175 14.784C26.2562 13.0347 27.5468 11.6693 29.1895 10.688C30.8535 9.70667 32.7628 9.216 34.9175 9.216C37.1148 9.216 39.0455 9.70667 40.7095 10.688C42.3735 11.6693 43.6642 13.0347 44.5815 14.784C45.4988 16.512 45.9575 18.5173 45.9575 20.8C45.9575 23.104 45.4988 25.1307 44.5815 26.88C43.6642 28.608 42.3735 29.9627 40.7095 30.944C39.0455 31.904 37.1148 32.384 34.9175 32.384ZM34.9495 28.928C36.3788 28.928 37.6268 28.608 38.6935 27.968C39.7602 27.3067 40.5815 26.368 41.1575 25.152C41.7335 23.936 42.0215 22.4853 42.0215 20.8C42.0215 19.1147 41.7335 17.664 41.1575 16.448C40.5815 15.232 39.7602 14.304 38.6935 13.664C37.6268 13.0027 36.3788 12.672 34.9495 12.672C33.5202 12.672 32.2722 13.0027 31.2055 13.664C30.1388 14.304 29.3068 15.232 28.7095 16.448C28.1335 17.664 27.8455 19.1147 27.8455 20.8C27.8455 22.4853 28.1335 23.936 28.7095 25.152C29.3068 26.368 30.1388 27.3067 31.2055 27.968C32.2722 28.608 33.5202 28.928 34.9495 28.928ZM57.2295 32.384C55.6082 32.384 54.1682 32.096 52.9095 31.52C51.6508 30.944 50.6695 30.1227 49.9655 29.056C49.2615 27.9893 48.8988 26.72 48.8775 25.248H52.9415C52.9415 25.9947 53.1122 26.6667 53.4535 27.264C53.8162 27.84 54.3068 28.2987 54.9255 28.64C55.5655 28.9813 56.3335 29.152 57.2295 29.152C57.9975 29.152 58.6588 29.0347 59.2135 28.8C59.7895 28.544 60.2268 28.192 60.5255 27.744C60.8455 27.2747 61.0055 26.7307 61.0055 26.112C61.0055 25.408 60.8348 24.832 60.4935 24.384C60.1735 23.9147 59.7255 23.52 59.1495 23.2C58.5735 22.88 57.9122 22.6027 57.1655 22.368C56.4188 22.112 55.6295 21.8453 54.7975 21.568C53.0268 20.9707 51.6935 20.2133 50.7975 19.296C49.9015 18.3573 49.4535 17.1093 49.4535 15.552C49.4535 14.2507 49.7628 13.1307 50.3815 12.192C51.0002 11.2533 51.8642 10.528 52.9735 10.016C54.1042 9.48267 55.4055 9.216 56.8775 9.216C58.3708 9.216 59.6722 9.48267 60.7815 10.016C61.9122 10.5493 62.7975 11.296 63.4375 12.256C64.0988 13.1947 64.4402 14.3253 64.4615 15.648H60.3655C60.3442 15.0933 60.1948 14.5813 59.9175 14.112C59.6402 13.6213 59.2348 13.2267 58.7015 12.928C58.1895 12.608 57.5602 12.448 56.8135 12.448C56.1735 12.4267 55.5975 12.5333 55.0855 12.768C54.5948 12.9813 54.2002 13.3013 53.9015 13.728C53.6242 14.1333 53.4855 14.6453 53.4855 15.264C53.4855 15.8613 53.6135 16.3627 53.8695 16.768C54.1468 17.152 54.5415 17.4827 55.0535 17.76C55.5655 18.016 56.1628 18.2613 56.8455 18.496C57.5282 18.7307 58.2748 18.9867 59.0855 19.264C60.1948 19.6267 61.1975 20.0747 62.0935 20.608C63.0108 21.12 63.7362 21.792 64.2695 22.624C64.8028 23.456 65.0695 24.5333 65.0695 25.856C65.0695 27.008 64.7708 28.0853 64.1735 29.088C63.5762 30.0693 62.7015 30.8693 61.5495 31.488C60.3975 32.0853 58.9575 32.384 57.2295 32.384ZM68.8033 32V9.6H83.2673V12.704H72.6433V19.136H82.3073V22.176H72.6433V28.896H83.2673V32H68.8033Z" fill="#1A1A1A"/>
<path d="M105 58V52C104 52.0001 104.2 53.2001 101 54.0001C97 55.0001 95 50.0001 91 49.0001C87.8 48.2001 87.6662 53 87.9995 55L90.9995 60L98.9995 62L105 58Z" fill="#FAD13E"/>
<path d="M23.488 64V44.704H16.896V41.6H33.888V44.704H27.296V64H23.488ZM33.175 64L41.367 41.6H45.655L53.847 64H49.783L43.479 46.08L37.175 64H33.175ZM36.823 58.72L37.847 55.68H48.887L49.911 58.72H36.823ZM64.7408 64V41.6H71.9728C74.5754 41.6 76.7194 42.0587 78.4048 42.976C80.1114 43.8933 81.3701 45.1947 82.1808 46.88C83.0128 48.544 83.4288 50.528 83.4288 52.832C83.4288 55.0933 83.0128 57.0667 82.1808 58.752C81.3701 60.416 80.1114 61.7067 78.4048 62.624C76.7194 63.5413 74.5754 64 71.9728 64H64.7408ZM68.5808 60.736H71.7808C73.7221 60.736 75.2474 60.4267 76.3568 59.808C77.4874 59.168 78.2874 58.2613 78.7568 57.088C79.2474 55.8933 79.4928 54.4747 79.4928 52.832C79.4928 51.168 79.2474 49.7493 78.7568 48.576C78.2874 47.3813 77.4874 46.464 76.3568 45.824C75.2474 45.1627 73.7221 44.832 71.7808 44.832H68.5808V60.736ZM97.3863 64.384C95.2316 64.384 93.3223 63.904 91.6583 62.944C90.0156 61.9627 88.7249 60.608 87.7863 58.88C86.8476 57.1307 86.3783 55.104 86.3783 52.8C86.3783 50.5173 86.8476 48.512 87.7863 46.784C88.7249 45.0347 90.0156 43.6693 91.6583 42.688C93.3223 41.7067 95.2316 41.216 97.3863 41.216C99.5836 41.216 101.514 41.7067 103.178 42.688C104.842 43.6693 106.133 45.0347 107.05 46.784C107.968 48.512 108.426 50.5173 108.426 52.8C108.426 55.104 107.968 57.1307 107.05 58.88C106.133 60.608 104.842 61.9627 103.178 62.944C101.514 63.904 99.5836 64.384 97.3863 64.384ZM97.4183 60.928C98.8476 60.928 100.096 60.608 101.162 59.968C102.229 59.3067 103.05 58.368 103.626 57.152C104.202 55.936 104.49 54.4853 104.49 52.8C104.49 51.1147 104.202 49.664 103.626 48.448C103.05 47.232 102.229 46.304 101.162 45.664C100.096 45.0027 98.8476 44.672 97.4183 44.672C95.9889 44.672 94.7409 45.0027 93.6743 45.664C92.6076 46.304 91.7756 47.232 91.1783 48.448C90.6023 49.664 90.3143 51.1147 90.3143 52.8C90.3143 54.4853 90.6023 55.936 91.1783 57.152C91.7756 58.368 92.6076 59.3067 93.6743 59.968C94.7409 60.608 95.9889 60.928 97.4183 60.928ZM119.698 64.384C118.077 64.384 116.637 64.096 115.378 63.52C114.12 62.944 113.138 62.1227 112.434 61.056C111.73 59.9893 111.368 58.72 111.346 57.248H115.41C115.41 57.9947 115.581 58.6667 115.922 59.264C116.285 59.84 116.776 60.2987 117.394 60.64C118.034 60.9813 118.802 61.152 119.698 61.152C120.466 61.152 121.128 61.0347 121.682 60.8C122.258 60.544 122.696 60.192 122.994 59.744C123.314 59.2747 123.474 58.7307 123.474 58.112C123.474 57.408 123.304 56.832 122.962 56.384C122.642 55.9147 122.194 55.52 121.618 55.2C121.042 54.88 120.381 54.6027 119.634 54.368C118.888 54.112 118.098 53.8453 117.266 53.568C115.496 52.9707 114.162 52.2133 113.266 51.296C112.37 50.3573 111.922 49.1093 111.922 47.552C111.922 46.2507 112.232 45.1307 112.85 44.192C113.469 43.2533 114.333 42.528 115.442 42.016C116.573 41.4827 117.874 41.216 119.346 41.216C120.84 41.216 122.141 41.4827 123.25 42.016C124.381 42.5493 125.266 43.296 125.906 44.256C126.568 45.1947 126.909 46.3253 126.93 47.648H122.834C122.813 47.0933 122.664 46.5813 122.386 46.112C122.109 45.6213 121.704 45.2267 121.17 44.928C120.658 44.608 120.029 44.448 119.282 44.448C118.642 44.4267 118.066 44.5333 117.554 44.768C117.064 44.9813 116.669 45.3013 116.37 45.728C116.093 46.1333 115.954 46.6453 115.954 47.264C115.954 47.8613 116.082 48.3627 116.338 48.768C116.616 49.152 117.01 49.4827 117.522 49.76C118.034 50.016 118.632 50.2613 119.314 50.496C119.997 50.7307 120.744 50.9867 121.554 51.264C122.664 51.6267 123.666 52.0747 124.562 52.608C125.48 53.12 126.205 53.792 126.738 54.624C127.272 55.456 127.538 56.5333 127.538 57.856C127.538 59.008 127.24 60.0853 126.642 61.088C126.045 62.0693 125.17 62.8693 124.018 63.488C122.866 64.0853 121.426 64.384 119.698 64.384ZM131.272 64V41.6H145.736V44.704H135.112V51.136H144.776V54.176H135.112V60.896H145.736V64H131.272Z" fill="#1A1A1A"/>
</svg>
