<svg width="74" height="37" viewBox="0 0 74 37" fill="none" xmlns="http://www.w3.org/2000/svg">
<path d="M1.136 16V4.8H4.752C6.05333 4.8 7.12533 5.02933 7.968 5.488C8.82133 5.94667 9.45067 6.59733 9.856 7.44C10.272 8.272 10.48 9.264 10.48 10.416C10.48 11.5467 10.272 12.5333 9.856 13.376C9.45067 14.208 8.82133 14.8533 7.968 15.312C7.12533 15.7707 6.05333 16 4.752 16H1.136ZM3.056 14.368H4.656C5.62667 14.368 6.38933 14.2133 6.944 13.904C7.50933 13.584 7.90933 13.1307 8.144 12.544C8.38933 11.9467 8.512 11.2373 8.512 10.416C8.512 9.584 8.38933 8.87467 8.144 8.288C7.90933 7.69067 7.50933 7.232 6.944 6.912C6.38933 6.58133 5.62667 6.416 4.656 6.416H3.056V14.368ZM17.4588 16.192C16.3814 16.192 15.4268 15.952 14.5948 15.472C13.7734 14.9813 13.1281 14.304 12.6588 13.44C12.1894 12.5653 11.9548 11.552 11.9548 10.4C11.9548 9.25867 12.1894 8.256 12.6588 7.392C13.1281 6.51733 13.7734 5.83467 14.5948 5.344C15.4268 4.85333 16.3814 4.608 17.4588 4.608C18.5574 4.608 19.5228 4.85333 20.3548 5.344C21.1868 5.83467 21.8321 6.51733 22.2908 7.392C22.7494 8.256 22.9788 9.25867 22.9788 10.4C22.9788 11.552 22.7494 12.5653 22.2908 13.44C21.8321 14.304 21.1868 14.9813 20.3548 15.472C19.5228 15.952 18.5574 16.192 17.4588 16.192ZM17.4748 14.464C18.1894 14.464 18.8134 14.304 19.3468 13.984C19.8801 13.6533 20.2908 13.184 20.5788 12.576C20.8668 11.968 21.0108 11.2427 21.0108 10.4C21.0108 9.55733 20.8668 8.832 20.5788 8.224C20.2908 7.616 19.8801 7.152 19.3468 6.832C18.8134 6.50133 18.1894 6.336 17.4748 6.336C16.7601 6.336 16.1361 6.50133 15.6028 6.832C15.0694 7.152 14.6534 7.616 14.3548 8.224C14.0668 8.832 13.9228 9.55733 13.9228 10.4C13.9228 11.2427 14.0668 11.968 14.3548 12.576C14.6534 13.184 15.0694 13.6533 15.6028 13.984C16.1361 14.304 16.7601 14.464 17.4748 14.464ZM28.6148 16.192C27.8041 16.192 27.0841 16.048 26.4548 15.76C25.8254 15.472 25.3348 15.0613 24.9828 14.528C24.6308 13.9947 24.4494 13.36 24.4388 12.624H26.4708C26.4708 12.9973 26.5561 13.3333 26.7268 13.632C26.9081 13.92 27.1534 14.1493 27.4628 14.32C27.7828 14.4907 28.1668 14.576 28.6148 14.576C28.9988 14.576 29.3294 14.5173 29.6068 14.4C29.8948 14.272 30.1134 14.096 30.2628 13.872C30.4228 13.6373 30.5028 13.3653 30.5028 13.056C30.5028 12.704 30.4174 12.416 30.2468 12.192C30.0868 11.9573 29.8628 11.76 29.5748 11.6C29.2868 11.44 28.9561 11.3013 28.5828 11.184C28.2094 11.056 27.8148 10.9227 27.3988 10.784C26.5134 10.4853 25.8468 10.1067 25.3988 9.648C24.9508 9.17867 24.7268 8.55467 24.7268 7.776C24.7268 7.12533 24.8814 6.56533 25.1908 6.096C25.5001 5.62667 25.9321 5.264 26.4868 5.008C27.0521 4.74133 27.7028 4.608 28.4388 4.608C29.1854 4.608 29.8361 4.74133 30.3908 5.008C30.9561 5.27467 31.3988 5.648 31.7188 6.128C32.0494 6.59733 32.2201 7.16267 32.2308 7.824H30.1828C30.1721 7.54667 30.0974 7.29067 29.9588 7.056C29.8201 6.81067 29.6174 6.61333 29.3508 6.464C29.0948 6.304 28.7801 6.224 28.4068 6.224C28.0868 6.21333 27.7988 6.26667 27.5428 6.384C27.2974 6.49067 27.1001 6.65067 26.9508 6.864C26.8121 7.06667 26.7428 7.32267 26.7428 7.632C26.7428 7.93067 26.8068 8.18133 26.9348 8.384C27.0734 8.576 27.2708 8.74133 27.5268 8.88C27.7828 9.008 28.0814 9.13067 28.4227 9.248C28.7641 9.36533 29.1374 9.49333 29.5428 9.632C30.0974 9.81333 30.5988 10.0373 31.0468 10.304C31.5054 10.56 31.8681 10.896 32.1348 11.312C32.4014 11.728 32.5347 12.2667 32.5347 12.928C32.5347 13.504 32.3854 14.0427 32.0868 14.544C31.7881 15.0347 31.3508 15.4347 30.7748 15.744C30.1988 16.0427 29.4788 16.192 28.6148 16.192ZM34.4016 16V4.8H41.6336V6.352H36.3216V9.568H41.1536V11.088H36.3216V14.448H41.6336V16H34.4016Z" fill="#1A1A1A"/>
<path d="M52.4998 29V26C52 26 52.1 26.6 50.5 27C48.5 27.5 47.5 25 45.5 24.5C43.9 24.1 43.8331 26.5 43.9998 27.5L45.4998 30L49.4998 31L52.4998 29Z" fill="#FAD13E"/>
<path d="M11.744 32V22.352H8.448V20.8H16.944V22.352H13.648V32H11.744ZM16.5875 32L20.6835 20.8H22.8275L26.9235 32H24.8915L21.7395 23.04L18.5875 32H16.5875ZM18.4115 29.36L18.9235 27.84H24.4435L24.9555 29.36H18.4115ZM32.3704 32V20.8H35.9864C37.2877 20.8 38.3597 21.0293 39.2024 21.488C40.0557 21.9467 40.685 22.5973 41.0904 23.44C41.5064 24.272 41.7144 25.264 41.7144 26.416C41.7144 27.5467 41.5064 28.5333 41.0904 29.376C40.685 30.208 40.0557 30.8533 39.2024 31.312C38.3597 31.7707 37.2877 32 35.9864 32H32.3704ZM34.2904 30.368H35.8904C36.861 30.368 37.6237 30.2133 38.1784 29.904C38.7437 29.584 39.1437 29.1307 39.3784 28.544C39.6237 27.9467 39.7464 27.2373 39.7464 26.416C39.7464 25.584 39.6237 24.8747 39.3784 24.288C39.1437 23.6907 38.7437 23.232 38.1784 22.912C37.6237 22.5813 36.861 22.416 35.8904 22.416H34.2904V30.368ZM48.6931 32.192C47.6158 32.192 46.6611 31.952 45.8291 31.472C45.0078 30.9813 44.3625 30.304 43.8931 29.44C43.4238 28.5653 43.1891 27.552 43.1891 26.4C43.1891 25.2587 43.4238 24.256 43.8931 23.392C44.3625 22.5173 45.0078 21.8347 45.8291 21.344C46.6611 20.8533 47.6158 20.608 48.6931 20.608C49.7918 20.608 50.7571 20.8533 51.5891 21.344C52.4211 21.8347 53.0665 22.5173 53.5251 23.392C53.9838 24.256 54.2131 25.2587 54.2131 26.4C54.2131 27.552 53.9838 28.5653 53.5251 29.44C53.0665 30.304 52.4211 30.9813 51.5891 31.472C50.7571 31.952 49.7918 32.192 48.6931 32.192ZM48.7091 30.464C49.4238 30.464 50.0478 30.304 50.5811 29.984C51.1145 29.6533 51.5251 29.184 51.8131 28.576C52.1011 27.968 52.2451 27.2427 52.2451 26.4C52.2451 25.5573 52.1011 24.832 51.8131 24.224C51.5251 23.616 51.1145 23.152 50.5811 22.832C50.0478 22.5013 49.4238 22.336 48.7091 22.336C47.9945 22.336 47.3705 22.5013 46.8371 22.832C46.3038 23.152 45.8878 23.616 45.5891 24.224C45.3011 24.832 45.1571 25.5573 45.1571 26.4C45.1571 27.2427 45.3011 27.968 45.5891 28.576C45.8878 29.184 46.3038 29.6533 46.8371 29.984C47.3705 30.304 47.9945 30.464 48.7091 30.464ZM59.8491 32.192C59.0385 32.192 58.3185 32.048 57.6891 31.76C57.0598 31.472 56.5691 31.0613 56.2171 30.528C55.8651 29.9947 55.6838 29.36 55.6731 28.624H57.7051C57.7051 28.9973 57.7905 29.3333 57.9611 29.632C58.1425 29.92 58.3878 30.1493 58.6971 30.32C59.0171 30.4907 59.4011 30.576 59.8491 30.576C60.2331 30.576 60.5638 30.5173 60.8411 30.4C61.1291 30.272 61.3478 30.096 61.4971 29.872C61.6571 29.6373 61.7371 29.3653 61.7371 29.056C61.7371 28.704 61.6518 28.416 61.4811 28.192C61.3211 27.9573 61.0971 27.76 60.8091 27.6C60.5211 27.44 60.1905 27.3013 59.8171 27.184C59.4438 27.056 59.0491 26.9227 58.6331 26.784C57.7478 26.4853 57.0811 26.1067 56.6331 25.648C56.1851 25.1787 55.9611 24.5547 55.9611 23.776C55.9611 23.1253 56.1158 22.5653 56.4251 22.096C56.7345 21.6267 57.1665 21.264 57.7211 21.008C58.2865 20.7413 58.9371 20.608 59.6731 20.608C60.4198 20.608 61.0705 20.7413 61.6251 21.008C62.1905 21.2747 62.6331 21.648 62.9531 22.128C63.2838 22.5973 63.4545 23.1627 63.4651 23.824H61.4171C61.4065 23.5467 61.3318 23.2907 61.1931 23.056C61.0545 22.8107 60.8518 22.6133 60.5851 22.464C60.3291 22.304 60.0145 22.224 59.6411 22.224C59.3211 22.2133 59.0331 22.2667 58.7771 22.384C58.5318 22.4907 58.3345 22.6507 58.1851 22.864C58.0465 23.0667 57.9771 23.3227 57.9771 23.632C57.9771 23.9307 58.0411 24.1813 58.1691 24.384C58.3078 24.576 58.5051 24.7413 58.7611 24.88C59.0171 25.008 59.3158 25.1307 59.6571 25.248C59.9985 25.3653 60.3718 25.4933 60.7771 25.632C61.3318 25.8133 61.8331 26.0373 62.2811 26.304C62.7398 26.56 63.1025 26.896 63.3691 27.312C63.6358 27.728 63.7691 28.2667 63.7691 28.928C63.7691 29.504 63.6198 30.0427 63.3211 30.544C63.0225 31.0347 62.5851 31.4347 62.0091 31.744C61.4331 32.0427 60.7131 32.192 59.8491 32.192ZM65.636 32V20.8H72.868V22.352H67.556V25.568H72.388V27.088H67.556V30.448H72.868V32H65.636Z" fill="#1A1A1A"/>
</svg>
